<svg width="169" height="255" viewBox="0 0 169 255" fill="none" xmlns="http://www.w3.org/2000/svg">
<path d="M5.19318 72V32.7273H18.4631C21.544 32.7273 24.0625 33.2834 26.0185 34.3956C27.9872 35.495 29.4446 36.9844 30.3906 38.8636C31.3366 40.7429 31.8097 42.8395 31.8097 45.1534C31.8097 47.4673 31.3366 49.5703 30.3906 51.4624C29.4574 53.3544 28.0128 54.8629 26.0568 55.9879C24.1009 57.1001 21.5952 57.6562 18.5398 57.6562H9.02841V53.4375H18.3864C20.4957 53.4375 22.1896 53.0732 23.468 52.3445C24.7464 51.6158 25.6733 50.6314 26.2486 49.3913C26.8366 48.1385 27.1307 46.7259 27.1307 45.1534C27.1307 43.581 26.8366 42.1747 26.2486 40.9347C25.6733 39.6946 24.7401 38.723 23.4489 38.0199C22.1577 37.304 20.4446 36.946 18.3097 36.946H9.94886V72H5.19318ZM50.5064 72.6136C47.745 72.6136 45.3672 71.9616 43.3729 70.6577C41.3786 69.3537 39.8445 67.5575 38.7706 65.2692C37.6967 62.9808 37.1598 60.3665 37.1598 57.4261C37.1598 54.4347 37.7095 51.7947 38.8089 49.5064C39.9212 47.2053 41.468 45.4091 43.4496 44.1179C45.4439 42.8139 47.7706 42.1619 50.4297 42.1619C52.5007 42.1619 54.3672 42.5455 56.0291 43.3125C57.6911 44.0795 59.0526 45.1534 60.1136 46.5341C61.1747 47.9148 61.8331 49.5256 62.0888 51.3665H57.5632C57.218 50.0241 56.451 48.8352 55.2621 47.7997C54.0859 46.7514 52.5007 46.2273 50.5064 46.2273C48.7422 46.2273 47.1953 46.6875 45.8658 47.608C44.549 48.5156 43.5199 49.8004 42.7784 51.4624C42.0497 53.1115 41.6854 55.0483 41.6854 57.2727C41.6854 59.5483 42.0433 61.5298 42.7592 63.2173C43.4879 64.9048 44.5107 66.2152 45.8274 67.1484C47.157 68.0817 48.7166 68.5483 50.5064 68.5483C51.6825 68.5483 52.75 68.3438 53.7088 67.9347C54.6676 67.5256 55.4794 66.9375 56.1442 66.1705C56.8089 65.4034 57.282 64.483 57.5632 63.4091H62.0888C61.8331 65.1477 61.2003 66.7138 60.1903 68.1072C59.1932 69.4879 57.87 70.5874 56.2209 71.4055C54.5845 72.2109 52.6797 72.6136 50.5064 72.6136Z" fill="#FF0000"/>
<path d="M5.19318 72H4.19318V73H5.19318V72ZM5.19318 32.7273V31.7273H4.19318V32.7273H5.19318ZM26.0185 34.3956L25.5241 35.2649L25.5309 35.2687L26.0185 34.3956ZM30.3906 38.8636L29.4974 39.3133L29.4974 39.3133L30.3906 38.8636ZM30.3906 51.4624L29.4962 51.0151L29.4938 51.02L30.3906 51.4624ZM26.0568 55.9879L26.5511 56.8572L26.5554 56.8548L26.0568 55.9879ZM9.02841 57.6562H8.02841V58.6562H9.02841V57.6562ZM9.02841 53.4375V52.4375H8.02841V53.4375H9.02841ZM23.468 52.3445L22.9728 51.4757L22.9728 51.4757L23.468 52.3445ZM26.2486 49.3913L25.3433 48.9664L25.3414 48.9705L26.2486 49.3913ZM26.2486 40.9347L25.3414 41.3555L25.345 41.3631L26.2486 40.9347ZM23.4489 38.0199L22.9639 38.8945L22.9706 38.8981L23.4489 38.0199ZM9.94886 36.946V35.946H8.94886V36.946H9.94886ZM9.94886 72V73H10.9489V72H9.94886ZM6.19318 72V32.7273H4.19318V72H6.19318ZM5.19318 33.7273H18.4631V31.7273H5.19318V33.7273ZM18.4631 33.7273C21.4319 33.7273 23.7644 34.2642 25.5242 35.2649L26.5128 33.5263C24.3606 32.3025 21.6561 31.7273 18.4631 31.7273V33.7273ZM25.5309 35.2687C27.3383 36.278 28.6478 37.6255 29.4974 39.3133L31.2838 38.414C30.2414 36.3432 28.6361 34.712 26.506 33.5225L25.5309 35.2687ZM29.4974 39.3133C30.3664 41.0396 30.8097 42.9798 30.8097 45.1534H32.8097C32.8097 42.6992 32.3069 40.4462 31.2838 38.414L29.4974 39.3133ZM30.8097 45.1534C30.8097 47.3269 30.3665 49.2746 29.4962 51.0151L31.2851 51.9096C32.3068 49.866 32.8097 47.6078 32.8097 45.1534H30.8097ZM29.4938 51.02C28.6545 52.7216 27.3549 54.0877 25.5582 55.1211L26.5554 56.8548C28.6707 55.6381 30.2603 53.9872 31.2875 51.9047L29.4938 51.02ZM25.5625 55.1186C23.8016 56.1199 21.4814 56.6562 18.5398 56.6562V58.6562C21.709 58.6562 24.4001 58.0804 26.5511 56.8572L25.5625 55.1186ZM18.5398 56.6562H9.02841V58.6562H18.5398V56.6562ZM10.0284 57.6562V53.4375H8.02841V57.6562H10.0284ZM9.02841 54.4375H18.3864V52.4375H9.02841V54.4375ZM18.3864 54.4375C20.5986 54.4375 22.4825 54.0573 23.9632 53.2132L22.9728 51.4757C21.8968 52.089 20.3929 52.4375 18.3864 52.4375V54.4375ZM23.9632 53.2132C25.4076 52.39 26.4862 51.2554 27.1557 49.8122L25.3414 48.9705C24.8604 50.0074 24.0853 50.8416 22.9728 51.4757L23.9632 53.2132ZM27.1538 49.8162C27.8123 48.4134 28.1307 46.8527 28.1307 45.1534H26.1307C26.1307 46.599 25.861 47.8636 25.3433 48.9664L27.1538 49.8162ZM28.1307 45.1534C28.1307 43.4544 27.8124 41.8984 27.1521 40.5062L25.345 41.3631C25.8609 42.451 26.1307 43.7076 26.1307 45.1534H28.1307ZM27.1557 40.5138C26.4832 39.0642 25.3915 37.9391 23.9271 37.1417L22.9706 38.8981C24.0886 39.5069 24.8634 40.325 25.3414 41.3555L27.1557 40.5138ZM23.9338 37.1453C22.4426 36.3185 20.5435 35.946 18.3097 35.946V37.946C20.3458 37.946 21.8727 38.2894 22.964 38.8945L23.9338 37.1453ZM18.3097 35.946H9.94886V37.946H18.3097V35.946ZM8.94886 36.946V72H10.9489V36.946H8.94886ZM9.94886 71H5.19318V73H9.94886V71ZM43.3729 70.6577L42.8256 71.4946L42.8256 71.4946L43.3729 70.6577ZM38.8089 49.5064L37.9086 49.0712L37.9076 49.0733L38.8089 49.5064ZM43.4496 44.1179L43.9955 44.9557L43.9968 44.9549L43.4496 44.1179ZM60.1136 46.5341L60.9065 45.9247L60.9065 45.9247L60.1136 46.5341ZM62.0888 51.3665V52.3665H63.2373L63.0793 51.2289L62.0888 51.3665ZM57.5632 51.3665L56.5947 51.6155L56.7878 52.3665H57.5632V51.3665ZM55.2621 47.7997L54.5967 48.5463L54.6053 48.5538L55.2621 47.7997ZM45.8658 47.608L46.4333 48.4313L46.435 48.4301L45.8658 47.608ZM42.7784 51.4624L41.8652 51.0549L41.8637 51.0582L42.7784 51.4624ZM42.7592 63.2173L41.8386 63.6079L41.8412 63.6138L42.7592 63.2173ZM45.8274 67.1484L45.2492 67.9643L45.2529 67.9669L45.8274 67.1484ZM53.7088 67.9347L53.3164 67.0149L53.3164 67.0149L53.7088 67.9347ZM56.1442 66.1705L56.8999 66.8254L56.8999 66.8254L56.1442 66.1705ZM57.5632 63.4091V62.4091H56.7914L56.5958 63.1557L57.5632 63.4091ZM62.0888 63.4091L63.0781 63.5546L63.2466 62.4091H62.0888V63.4091ZM60.1903 68.1072L59.3806 67.5204L59.3797 67.5218L60.1903 68.1072ZM56.2209 71.4055L56.6625 72.3028L56.6653 72.3014L56.2209 71.4055ZM50.5064 71.6136C47.9078 71.6136 45.7272 71.0022 43.9201 69.8207L42.8256 71.4946C45.0072 72.9211 47.5823 73.6136 50.5064 73.6136V71.6136ZM43.9201 69.8207C42.0906 68.6245 40.6759 66.9754 39.6759 64.8444L37.8653 65.694C39.013 68.1396 40.6665 70.0829 42.8256 71.4946L43.9201 69.8207ZM39.6759 64.8444C38.6738 62.709 38.1598 60.2435 38.1598 57.4261H36.1598C36.1598 60.4895 36.7197 63.2527 37.8653 65.694L39.6759 64.8444ZM38.1598 57.4261C38.1598 54.558 38.6864 52.0706 39.7103 49.9394L37.9076 49.0733C36.7326 51.5189 36.1598 54.3113 36.1598 57.4261H38.1598ZM39.7093 49.9416C40.7489 47.7907 42.1789 46.1395 43.9955 44.9557L42.9036 43.2801C40.7572 44.6787 39.0935 46.6198 37.9086 49.0712L39.7093 49.9416ZM43.9968 44.9549C45.81 43.7694 47.9416 43.1619 50.4297 43.1619V41.1619C47.5995 41.1619 45.0778 41.8585 42.9023 43.2809L43.9968 44.9549ZM50.4297 43.1619C52.3751 43.1619 54.0958 43.5216 55.6101 44.2205L56.4482 42.4045C54.6386 41.5693 52.6263 41.1619 50.4297 41.1619V43.1619ZM55.6101 44.2205C57.1328 44.9233 58.3634 45.8977 59.3207 47.1434L60.9065 45.9247C59.7418 44.4091 58.2493 43.2358 56.4482 42.4045L55.6101 44.2205ZM59.3207 47.1434C60.269 48.3774 60.8648 49.8229 61.0983 51.504L63.0793 51.2289C62.8014 49.2282 62.0804 47.4522 60.9065 45.9247L59.3207 47.1434ZM62.0888 50.3665H57.5632V52.3665H62.0888V50.3665ZM58.5317 51.1174C58.1294 49.5529 57.2387 48.1951 55.9189 47.0456L54.6053 48.5538C55.6633 49.4753 56.3067 50.4954 56.5947 51.6155L58.5317 51.1174ZM55.9274 47.0532C54.5234 45.8017 52.6786 45.2273 50.5064 45.2273V47.2273C52.3228 47.2273 53.6485 47.7011 54.5967 48.5462L55.9274 47.0532ZM50.5064 45.2273C48.5582 45.2273 46.8086 45.739 45.2966 46.7858L46.435 48.4301C47.582 47.636 48.9262 47.2273 50.5064 47.2273V45.2273ZM45.2982 46.7846C43.8102 47.8103 42.6709 49.2489 41.8652 51.0549L43.6916 51.8698C44.3688 50.352 45.2878 49.2209 46.4333 48.4313L45.2982 46.7846ZM41.8637 51.0582C41.0672 52.8607 40.6854 54.9408 40.6854 57.2727H42.6854C42.6854 55.1558 43.0322 53.3623 43.6931 51.8665L41.8637 51.0582ZM40.6854 57.2727C40.6854 59.6511 41.0593 61.7709 41.8387 63.6079L43.6798 62.8268C43.0273 61.2888 42.6854 59.4455 42.6854 57.2727H40.6854ZM41.8412 63.6138C42.6322 65.4457 43.7629 66.911 45.2492 67.9643L46.4057 66.3326C45.2584 65.5194 44.3436 64.364 43.6773 62.8209L41.8412 63.6138ZM45.2529 67.9669C46.7678 69.0303 48.5329 69.5483 50.5064 69.5483V67.5483C48.9003 67.5483 47.5461 67.1331 46.4019 66.3299L45.2529 67.9669ZM50.5064 69.5483C51.8001 69.5483 53.0034 69.3228 54.1012 68.8544L53.3164 67.0149C52.4966 67.3647 51.5649 67.5483 50.5064 67.5483V69.5483ZM54.1012 68.8544C55.1958 68.3874 56.1329 67.7103 56.8999 66.8254L55.3885 65.5155C54.8259 66.1647 54.1395 66.6637 53.3164 67.0149L54.1012 68.8544ZM56.8999 66.8254C57.6742 65.9319 58.2142 64.8705 58.5306 63.6625L56.5958 63.1557C56.3497 64.0954 55.9437 64.8749 55.3885 65.5155L56.8999 66.8254ZM57.5632 64.4091H62.0888V62.4091H57.5632V64.4091ZM61.0994 63.2636C60.8667 64.8463 60.294 66.2603 59.3806 67.5204L61 68.6941C62.1066 67.1673 62.7995 65.4492 63.0781 63.5546L61.0994 63.2636ZM59.3797 67.5218C58.4852 68.7603 57.2922 69.7577 55.7764 70.5097L56.6653 72.3014C58.4479 71.417 59.9012 70.2156 61.001 68.6927L59.3797 67.5218ZM55.7793 70.5083C54.3042 71.2343 52.5556 71.6136 50.5064 71.6136V73.6136C52.8037 73.6136 54.8648 73.1875 56.6625 72.3028L55.7793 70.5083Z" fill="black"/>
<path d="M4.92267 147V107.727H18.6528C21.3886 107.727 23.645 108.2 25.422 109.146C27.199 110.08 28.5221 111.339 29.3914 112.924C30.2607 114.496 30.6954 116.241 30.6954 118.159C30.6954 119.847 30.395 121.24 29.7941 122.339C29.2061 123.439 28.4262 124.308 27.4546 124.947C26.4958 125.587 25.4539 126.06 24.3289 126.366V126.75C25.5306 126.827 26.7387 127.249 27.9532 128.016C29.1677 128.783 30.184 129.882 31.0022 131.314C31.8204 132.746 32.2295 134.497 32.2295 136.568C32.2295 138.537 31.782 140.308 30.8872 141.88C29.9923 143.452 28.5796 144.699 26.6492 145.619C24.7188 146.54 22.2068 147 19.113 147H4.92267ZM9.67836 142.781H19.113C22.2195 142.781 24.4248 142.18 25.7288 140.979C27.0455 139.764 27.7039 138.294 27.7039 136.568C27.7039 135.239 27.3651 134.011 26.6876 132.886C26.01 131.749 25.0448 130.841 23.792 130.163C22.5392 129.473 21.0562 129.128 19.3431 129.128H9.67836V142.781ZM9.67836 124.986H18.4994C19.9312 124.986 21.2224 124.705 22.373 124.142C23.5363 123.58 24.4568 122.787 25.1343 121.764C25.8247 120.741 26.1698 119.54 26.1698 118.159C26.1698 116.433 25.569 114.969 24.3673 113.768C23.1656 112.553 21.2607 111.946 18.6528 111.946H9.67836V124.986ZM57.9926 134.957V117.545H62.5182V147H57.9926V142.014H57.6858C56.9955 143.51 55.9216 144.782 54.4642 145.83C53.0068 146.866 51.1659 147.384 48.9415 147.384C47.1006 147.384 45.4642 146.981 44.0324 146.175C42.6006 145.357 41.4756 144.13 40.6574 142.494C39.8392 140.844 39.4301 138.767 39.4301 136.261V117.545H43.9557V135.955C43.9557 138.102 44.5566 139.815 45.7583 141.094C46.9727 142.372 48.5196 143.011 50.3989 143.011C51.5239 143.011 52.6681 142.724 53.8314 142.148C55.0075 141.573 55.9919 140.691 56.7845 139.502C57.5899 138.313 57.9926 136.798 57.9926 134.957ZM70.8071 147V117.545H75.3327V147H70.8071ZM73.1082 112.636C72.2261 112.636 71.4655 112.336 70.8263 111.735C70.1998 111.134 69.8866 110.412 69.8866 109.568C69.8866 108.724 70.1998 108.002 70.8263 107.401C71.4655 106.8 72.2261 106.5 73.1082 106.5C73.9903 106.5 74.7446 106.8 75.371 107.401C76.0102 108.002 76.3298 108.724 76.3298 109.568C76.3298 110.412 76.0102 111.134 75.371 111.735C74.7446 112.336 73.9903 112.636 73.1082 112.636ZM88.1471 107.727V147H83.6215V107.727H88.1471ZM107.558 147.614C105.104 147.614 102.937 146.994 101.057 145.754C99.1782 144.501 97.708 142.737 96.6469 140.461C95.5858 138.173 95.0553 135.469 95.0553 132.349C95.0553 129.256 95.5858 126.571 96.6469 124.295C97.708 122.02 99.1846 120.262 101.077 119.022C102.969 117.782 105.155 117.162 107.635 117.162C109.552 117.162 111.067 117.482 112.18 118.121C113.305 118.747 114.161 119.463 114.749 120.268C115.35 121.061 115.817 121.713 116.149 122.224H116.533V107.727H121.058V147H116.686V142.474H116.149C115.817 143.011 115.344 143.689 114.73 144.507C114.116 145.312 113.241 146.035 112.103 146.674C110.965 147.3 109.45 147.614 107.558 147.614ZM108.172 143.548C109.987 143.548 111.521 143.075 112.774 142.129C114.027 141.17 114.979 139.847 115.631 138.16C116.283 136.46 116.609 134.497 116.609 132.273C116.609 130.074 116.29 128.15 115.65 126.501C115.011 124.839 114.065 123.548 112.812 122.627C111.56 121.694 110.013 121.227 108.172 121.227C106.254 121.227 104.656 121.719 103.378 122.704C102.112 123.675 101.16 124.999 100.521 126.673C99.8941 128.335 99.5809 130.202 99.5809 132.273C99.5809 134.369 99.9005 136.274 100.54 137.987C101.192 139.687 102.15 141.043 103.416 142.053C104.695 143.05 106.28 143.548 108.172 143.548Z" fill="#00FF29"/>
<path d="M4.92267 147H3.92267V148H4.92267V147ZM4.92267 107.727V106.727H3.92267V107.727H4.92267ZM25.422 109.146L24.952 110.029L24.957 110.032L25.422 109.146ZM29.3914 112.924L28.5146 113.405L28.5163 113.408L29.3914 112.924ZM29.7941 122.339L28.9166 121.86L28.9123 121.868L29.7941 122.339ZM27.4546 124.947L26.905 124.112L26.8999 124.115L27.4546 124.947ZM24.3289 126.366L24.0658 125.402L23.3289 125.603V126.366H24.3289ZM24.3289 126.75H23.3289V127.688L24.2652 127.748L24.3289 126.75ZM27.9532 128.016L27.4192 128.861L27.4192 128.861L27.9532 128.016ZM30.8872 141.88L31.7563 142.375L31.7563 142.375L30.8872 141.88ZM26.6492 145.619L26.2188 144.717L26.2188 144.717L26.6492 145.619ZM9.67836 142.781H8.67836V143.781H9.67836V142.781ZM25.7288 140.979L26.4065 141.714L26.4068 141.714L25.7288 140.979ZM26.6876 132.886L25.8284 133.398L25.831 133.402L26.6876 132.886ZM23.792 130.163L23.3094 131.039L23.3163 131.043L23.792 130.163ZM9.67836 129.128V128.128H8.67836V129.128H9.67836ZM9.67836 124.986H8.67836V125.986H9.67836V124.986ZM22.373 124.142L21.9377 123.242L21.9337 123.244L22.373 124.142ZM25.1343 121.764L24.3054 121.205L24.3007 121.212L25.1343 121.764ZM24.3673 113.768L23.6564 114.471L23.6602 114.475L24.3673 113.768ZM9.67836 111.946V110.946H8.67836V111.946H9.67836ZM5.92267 147V107.727H3.92267V147H5.92267ZM4.92267 108.727H18.6528V106.727H4.92267V108.727ZM18.6528 108.727C21.2808 108.727 23.3623 109.183 24.952 110.029L25.8919 108.264C23.9277 107.218 21.4963 106.727 18.6528 106.727V108.727ZM24.957 110.032C26.5798 110.884 27.7501 112.011 28.5146 113.405L30.2682 112.443C29.2941 110.667 27.8181 109.275 25.8869 108.261L24.957 110.032ZM28.5163 113.408C29.2982 114.822 29.6954 116.399 29.6954 118.159H31.6954C31.6954 116.084 31.2233 114.171 30.2666 112.44L28.5163 113.408ZM29.6954 118.159C29.6954 119.735 29.414 120.95 28.9166 121.86L30.6716 122.819C31.3759 121.53 31.6954 119.958 31.6954 118.159H29.6954ZM28.9123 121.868C28.3971 122.831 27.7273 123.571 26.905 124.112L28.0043 125.783C29.1251 125.045 30.015 124.047 30.6759 122.811L28.9123 121.868ZM26.8999 124.115C26.0316 124.694 25.0884 125.123 24.0658 125.402L24.592 127.331C25.8195 126.996 26.96 126.479 28.0093 125.779L26.8999 124.115ZM23.3289 126.366V126.75H25.3289V126.366H23.3289ZM24.2652 127.748C25.2704 127.812 26.319 128.166 27.4192 128.861L28.4872 127.17C27.1584 126.331 25.7908 125.841 24.3926 125.752L24.2652 127.748ZM27.4192 128.861C28.4761 129.529 29.3849 130.499 30.134 131.81L31.8705 130.818C30.9832 129.265 29.8593 128.037 28.4872 127.17L27.4192 128.861ZM30.134 131.81C30.8464 133.057 31.2295 134.627 31.2295 136.568H33.2295C33.2295 134.367 32.7944 132.435 31.8705 130.818L30.134 131.81ZM31.2295 136.568C31.2295 138.379 30.8197 139.977 30.0181 141.385L31.7563 142.375C32.7444 140.638 33.2295 138.695 33.2295 136.568H31.2295ZM30.0181 141.385C29.2416 142.75 27.9991 143.868 26.2188 144.717L27.0796 146.522C29.1601 145.53 30.7429 144.155 31.7563 142.375L30.0181 141.385ZM26.2188 144.717C24.4691 145.551 22.1194 146 19.113 146V148C22.2941 148 24.9685 147.529 27.0796 146.522L26.2188 144.717ZM19.113 146H4.92267V148H19.113V146ZM9.67836 143.781H19.113V141.781H9.67836V143.781ZM19.113 143.781C22.2981 143.781 24.8214 143.175 26.4065 141.714L25.0511 140.243C24.0282 141.186 22.141 141.781 19.113 141.781V143.781ZM26.4068 141.714C27.92 140.318 28.7039 138.585 28.7039 136.568H26.7039C26.7039 138.003 26.1711 139.21 25.0508 140.244L26.4068 141.714ZM28.7039 136.568C28.7039 135.059 28.3168 133.653 27.5442 132.37L25.831 133.402C26.4135 134.37 26.7039 135.418 26.7039 136.568H28.7039ZM27.5468 132.375C26.77 131.07 25.6668 130.04 24.2677 129.284L23.3163 131.043C24.4229 131.641 25.2501 132.427 25.8284 133.398L27.5468 132.375ZM24.2746 129.288C22.8473 128.501 21.1917 128.128 19.3431 128.128V130.128C20.9207 130.128 22.231 130.445 23.3094 131.039L24.2746 129.288ZM19.3431 128.128H9.67836V130.128H19.3431V128.128ZM8.67836 129.128V142.781H10.6784V129.128H8.67836ZM9.67836 125.986H18.4994V123.986H9.67836V125.986ZM18.4994 125.986C20.0653 125.986 21.5094 125.677 22.8122 125.04L21.9337 123.244C20.9353 123.732 19.7971 123.986 18.4994 123.986V125.986ZM22.8083 125.042C24.1242 124.406 25.1859 123.497 25.968 122.316L24.3007 121.212C23.7276 122.077 22.9484 122.753 21.9377 123.242L22.8083 125.042ZM25.9632 122.324C26.7781 121.116 27.1698 119.715 27.1698 118.159H25.1698C25.1698 119.365 24.8712 120.367 24.3055 121.205L25.9632 122.324ZM27.1698 118.159C27.1698 116.173 26.4669 114.453 25.0744 113.061L23.6602 114.475C24.6711 115.486 25.1698 116.694 25.1698 118.159H27.1698ZM25.0781 113.064C23.6097 111.58 21.3896 110.946 18.6528 110.946V112.946C21.1319 112.946 22.7214 113.526 23.6564 114.471L25.0781 113.064ZM18.6528 110.946H9.67836V112.946H18.6528V110.946ZM8.67836 111.946V124.986H10.6784V111.946H8.67836ZM57.9926 117.545V116.545H56.9926V117.545H57.9926ZM62.5182 117.545H63.5182V116.545H62.5182V117.545ZM62.5182 147V148H63.5182V147H62.5182ZM57.9926 147H56.9926V148H57.9926V147ZM57.9926 142.014H58.9926V141.014H57.9926V142.014ZM57.6858 142.014V141.014H57.046L56.7779 141.595L57.6858 142.014ZM54.4642 145.83L55.0434 146.645L55.0482 146.642L54.4642 145.83ZM44.0324 146.175L43.5363 147.044L43.5421 147.047L44.0324 146.175ZM40.6574 142.494L39.7616 142.938L39.763 142.941L40.6574 142.494ZM39.4301 117.545V116.545H38.4301V117.545H39.4301ZM43.9557 117.545H44.9557V116.545H43.9557V117.545ZM45.7583 141.094L45.0296 141.779L45.0333 141.782L45.7583 141.094ZM53.8314 142.148L53.392 141.25L53.3881 141.252L53.8314 142.148ZM56.7845 139.502L55.9566 138.941L55.9525 138.947L56.7845 139.502ZM58.9926 134.957V117.545H56.9926V134.957H58.9926ZM57.9926 118.545H62.5182V116.545H57.9926V118.545ZM61.5182 117.545V147H63.5182V117.545H61.5182ZM62.5182 146H57.9926V148H62.5182V146ZM58.9926 147V142.014H56.9926V147H58.9926ZM57.9926 141.014H57.6858V143.014H57.9926V141.014ZM56.7779 141.595C56.1662 142.92 55.2105 144.062 53.8803 145.018L55.0482 146.642C56.6327 145.502 57.8247 144.1 58.5938 142.433L56.7779 141.595ZM53.885 145.015C52.6343 145.904 51.0096 146.384 48.9415 146.384V148.384C51.3223 148.384 53.3794 147.828 55.0434 146.645L53.885 145.015ZM48.9415 146.384C47.2512 146.384 45.7874 146.015 44.5227 145.304L43.5421 147.047C45.141 147.946 46.95 148.384 48.9415 148.384V146.384ZM44.5285 145.307C43.2866 144.598 42.2918 143.526 41.5518 142.046L39.763 142.941C40.6594 144.734 41.9145 146.117 43.5363 147.044L44.5285 145.307ZM41.5532 142.049C40.8237 140.579 40.4301 138.666 40.4301 136.261H38.4301C38.4301 138.868 38.8547 141.11 39.7616 142.938L41.5532 142.049ZM40.4301 136.261V117.545H38.4301V136.261H40.4301ZM39.4301 118.545H43.9557V116.545H39.4301V118.545ZM42.9557 117.545V135.955H44.9557V117.545H42.9557ZM42.9557 135.955C42.9557 138.297 43.6164 140.275 45.0296 141.779L46.4869 140.409C45.4967 139.355 44.9557 137.908 44.9557 135.955H42.9557ZM45.0333 141.782C46.45 143.274 48.2656 144.011 50.3989 144.011V142.011C48.7736 142.011 47.4955 141.471 46.4833 140.405L45.0333 141.782ZM50.3989 144.011C51.6997 144.011 52.9947 143.678 54.2747 143.045L53.3881 141.252C52.3414 141.77 51.3481 142.011 50.3989 142.011V144.011ZM54.2708 143.047C55.6202 142.387 56.735 141.379 57.6166 140.057L55.9525 138.947C55.2488 140.003 54.3948 140.76 53.392 141.25L54.2708 143.047ZM57.6125 140.063C58.5578 138.667 58.9926 136.942 58.9926 134.957H56.9926C56.9926 136.654 56.6221 137.959 55.9566 138.941L57.6125 140.063ZM70.8071 147H69.8071V148H70.8071V147ZM70.8071 117.545V116.545H69.8071V117.545H70.8071ZM75.3327 117.545H76.3327V116.545H75.3327V117.545ZM75.3327 147V148H76.3327V147H75.3327ZM70.8263 111.735L70.134 112.457L70.1414 112.464L70.8263 111.735ZM70.8263 107.401L70.1413 106.673L70.134 106.68L70.8263 107.401ZM75.371 107.401L74.6787 108.123L74.6861 108.13L75.371 107.401ZM75.371 111.735L74.6861 111.006L74.6788 111.013L75.371 111.735ZM71.8071 147V117.545H69.8071V147H71.8071ZM70.8071 118.545H75.3327V116.545H70.8071V118.545ZM74.3327 117.545V147H76.3327V117.545H74.3327ZM75.3327 146H70.8071V148H75.3327V146ZM73.1082 111.636C72.4791 111.636 71.9638 111.432 71.5112 111.006L70.1414 112.464C70.9671 113.24 71.9732 113.636 73.1082 113.636V111.636ZM71.5185 111.013C71.0823 110.595 70.8866 110.131 70.8866 109.568H68.8866C68.8866 110.693 69.3174 111.673 70.134 112.457L71.5185 111.013ZM70.8866 109.568C70.8866 109.006 71.0823 108.541 71.5185 108.123L70.134 106.68C69.3174 107.463 68.8866 108.443 68.8866 109.568H70.8866ZM71.5112 108.13C71.9638 107.704 72.4791 107.5 73.1082 107.5V105.5C71.9732 105.5 70.9671 105.896 70.1414 106.673L71.5112 108.13ZM73.1082 107.5C73.737 107.5 74.2419 107.704 74.6788 108.123L76.0632 106.68C75.2473 105.897 74.2437 105.5 73.1082 105.5V107.5ZM74.6861 108.13C75.1332 108.55 75.3298 109.012 75.3298 109.568H77.3298C77.3298 108.436 76.8872 107.454 76.0559 106.673L74.6861 108.13ZM75.3298 109.568C75.3298 110.124 75.1332 110.586 74.6861 111.006L76.0559 112.464C76.8872 111.682 77.3298 110.7 77.3298 109.568H75.3298ZM74.6788 111.013C74.2419 111.432 73.737 111.636 73.1082 111.636V113.636C74.2437 113.636 75.2473 113.239 76.0632 112.457L74.6788 111.013ZM88.1471 107.727H89.1471V106.727H88.1471V107.727ZM88.1471 147V148H89.1471V147H88.1471ZM83.6215 147H82.6215V148H83.6215V147ZM83.6215 107.727V106.727H82.6215V107.727H83.6215ZM87.1471 107.727V147H89.1471V107.727H87.1471ZM88.1471 146H83.6215V148H88.1471V146ZM84.6215 147V107.727H82.6215V147H84.6215ZM83.6215 108.727H88.1471V106.727H83.6215V108.727ZM101.057 145.754L100.503 146.586L100.507 146.588L101.057 145.754ZM96.6469 140.461L95.7397 140.882L95.7406 140.884L96.6469 140.461ZM96.6469 124.295L95.7406 123.873L95.7406 123.873L96.6469 124.295ZM101.077 119.022L100.528 118.186L100.528 118.186L101.077 119.022ZM112.18 118.121L111.681 118.988L111.693 118.994L112.18 118.121ZM114.749 120.268L113.942 120.858L113.947 120.865L113.952 120.873L114.749 120.268ZM116.149 122.224L115.311 122.769L115.606 123.224H116.149V122.224ZM116.533 122.224V123.224H117.533V122.224H116.533ZM116.533 107.727V106.727H115.533V107.727H116.533ZM121.058 107.727H122.058V106.727H121.058V107.727ZM121.058 147V148H122.058V147H121.058ZM116.686 147H115.686V148H116.686V147ZM116.686 142.474H117.686V141.474H116.686V142.474ZM116.149 142.474V141.474H115.592L115.299 141.948L116.149 142.474ZM114.73 144.507L115.525 145.113L115.53 145.107L114.73 144.507ZM112.103 146.674L112.585 147.55L112.593 147.546L112.103 146.674ZM112.774 142.129L113.377 142.927L113.382 142.923L112.774 142.129ZM115.631 138.16L116.564 138.52L116.565 138.518L115.631 138.16ZM115.65 126.501L114.717 126.86L114.718 126.862L115.65 126.501ZM112.812 122.627L112.215 123.429L112.22 123.433L112.812 122.627ZM103.378 122.704L103.987 123.497L103.988 123.496L103.378 122.704ZM100.521 126.673L99.5862 126.317L99.5848 126.321L100.521 126.673ZM100.54 137.987L99.6027 138.337L99.606 138.345L100.54 137.987ZM103.416 142.053L102.792 142.834L102.801 142.841L103.416 142.053ZM107.558 146.614C105.281 146.614 103.309 146.041 101.608 144.919L100.507 146.588C102.564 147.946 104.926 148.614 107.558 148.614V146.614ZM101.612 144.922C99.902 143.781 98.5458 142.167 97.5532 140.038L95.7406 140.884C96.8703 143.306 98.4543 145.22 100.503 146.586L101.612 144.922ZM97.5541 140.04C96.5669 137.911 96.0553 135.357 96.0553 132.349H94.0553C94.0553 135.581 94.6048 138.434 95.7397 140.882L97.5541 140.04ZM96.0553 132.349C96.0553 129.369 96.5665 126.834 97.5532 124.718L95.7406 123.873C94.6052 126.308 94.0553 129.143 94.0553 132.349H96.0553ZM97.5532 124.718C98.5446 122.592 99.905 120.986 101.625 119.858L100.528 118.186C98.4641 119.539 96.8714 121.448 95.7406 123.873L97.5532 124.718ZM101.625 119.858C103.338 118.735 105.33 118.162 107.635 118.162V116.162C104.98 116.162 102.599 116.829 100.528 118.186L101.625 119.858ZM107.635 118.162C109.458 118.162 110.778 118.468 111.681 118.988L112.678 117.254C111.357 116.495 109.647 116.162 107.635 116.162V118.162ZM111.693 118.994C112.727 119.57 113.46 120.198 113.942 120.858L115.557 119.679C114.862 118.728 113.882 117.924 112.666 117.247L111.693 118.994ZM113.952 120.873C114.546 121.656 114.997 122.287 115.311 122.769L116.988 121.679C116.636 121.139 116.154 120.466 115.546 119.664L113.952 120.873ZM116.149 123.224H116.533V121.224H116.149V123.224ZM117.533 122.224V107.727H115.533V122.224H117.533ZM116.533 108.727H121.058V106.727H116.533V108.727ZM120.058 107.727V147H122.058V107.727H120.058ZM121.058 146H116.686V148H121.058V146ZM117.686 147V142.474H115.686V147H117.686ZM116.686 141.474H116.149V143.474H116.686V141.474ZM115.299 141.948C114.989 142.449 114.535 143.1 113.93 143.907L115.53 145.107C116.152 144.278 116.645 143.574 116.999 143.001L115.299 141.948ZM113.935 143.901C113.424 144.571 112.665 145.211 111.613 145.802L112.593 147.546C113.816 146.858 114.809 146.054 115.525 145.113L113.935 143.901ZM111.621 145.798C110.683 146.314 109.353 146.614 107.558 146.614V148.614C109.547 148.614 111.247 148.287 112.585 147.55L111.621 145.798ZM108.172 144.548C110.169 144.548 111.924 144.024 113.377 142.927L112.171 141.331C111.118 142.126 109.805 142.548 108.172 142.548V144.548ZM113.382 142.923C114.801 141.837 115.856 140.354 116.564 138.52L114.699 137.799C114.103 139.341 113.253 140.504 112.166 141.335L113.382 142.923ZM116.565 138.518C117.269 136.681 117.609 134.593 117.609 132.273H115.609C115.609 134.401 115.297 136.238 114.698 137.802L116.565 138.518ZM117.609 132.273C117.609 129.979 117.276 127.928 116.583 126.139L114.718 126.862C115.303 128.372 115.609 130.168 115.609 132.273H117.609ZM116.584 126.142C115.886 124.328 114.833 122.871 113.404 121.821L112.22 123.433C113.298 124.224 114.136 125.35 114.717 126.86L116.584 126.142ZM113.41 121.825C111.955 120.742 110.188 120.227 108.172 120.227V122.227C109.837 122.227 111.164 122.646 112.215 123.429L113.41 121.825ZM108.172 120.227C106.077 120.227 104.252 120.768 102.768 121.912L103.988 123.496C105.06 122.671 106.432 122.227 108.172 122.227V120.227ZM102.769 121.911C101.339 123.008 100.283 124.491 99.5862 126.317L101.455 127.03C102.036 125.506 102.885 124.343 103.987 123.497L102.769 121.911ZM99.5848 126.321C98.9094 128.112 98.5809 130.101 98.5809 132.273H100.581C100.581 130.303 100.879 128.558 101.456 127.026L99.5848 126.321ZM98.5809 132.273C98.5809 134.471 98.9162 136.497 99.6028 138.337L101.477 137.638C100.885 136.052 100.581 134.267 100.581 132.273H98.5809ZM99.606 138.345C100.314 140.191 101.371 141.7 102.792 142.834L104.04 141.271C102.93 140.385 102.07 139.184 101.473 137.629L99.606 138.345ZM102.801 142.841C104.284 143.997 106.096 144.548 108.172 144.548V142.548C106.464 142.548 105.106 142.102 104.031 141.264L102.801 142.841Z" fill="black"/>
<path d="M4.93342 222V182.727H9.6891V200.216H30.6294V182.727H35.3851V222H30.6294V204.435H9.6891V222H4.93342ZM56.6419 222.614C53.8038 222.614 51.3556 221.987 49.2974 220.734C47.252 219.469 45.6731 217.705 44.5609 215.442C43.4615 213.166 42.9118 210.52 42.9118 207.503C42.9118 204.486 43.4615 201.827 44.5609 199.526C45.6731 197.212 47.22 195.409 49.2015 194.118C51.1958 192.814 53.5226 192.162 56.1816 192.162C57.7157 192.162 59.2306 192.418 60.7264 192.929C62.2221 193.44 63.5836 194.271 64.8109 195.422C66.0382 196.56 67.0162 198.068 67.7449 199.947C68.4735 201.827 68.8379 204.141 68.8379 206.889V208.807H46.1333V204.895H64.2356C64.2356 203.233 63.9032 201.75 63.2385 200.446C62.5865 199.142 61.6532 198.113 60.4387 197.359C59.237 196.604 57.818 196.227 56.1816 196.227C54.3791 196.227 52.8194 196.675 51.5027 197.57C50.1987 198.452 49.1951 199.602 48.492 201.021C47.7889 202.44 47.4373 203.962 47.4373 205.585V208.193C47.4373 210.418 47.8208 212.303 48.5879 213.85C49.3677 215.384 50.448 216.554 51.8287 217.359C53.2093 218.152 54.8137 218.548 56.6419 218.548C57.8308 218.548 58.9047 218.382 59.8635 218.05C60.8351 217.705 61.6724 217.193 62.3755 216.516C63.0787 215.825 63.622 214.969 64.0055 213.946L68.3777 215.173C67.9174 216.656 67.144 217.96 66.0574 219.085C64.9707 220.197 63.6284 221.067 62.0304 221.693C60.4324 222.307 58.6362 222.614 56.6419 222.614ZM80.2477 182.727V222H75.7221V182.727H80.2477ZM88.5366 233.045V192.545H92.9087V197.224H93.4457C93.7781 196.713 94.2383 196.061 94.8263 195.268C95.4272 194.463 96.2837 193.747 97.396 193.121C98.521 192.482 100.042 192.162 101.96 192.162C104.44 192.162 106.626 192.782 108.518 194.022C110.41 195.262 111.887 197.02 112.948 199.295C114.009 201.571 114.539 204.256 114.539 207.349C114.539 210.469 114.009 213.173 112.948 215.461C111.887 217.737 110.417 219.501 108.537 220.754C106.658 221.994 104.491 222.614 102.037 222.614C100.145 222.614 98.6296 222.3 97.4918 221.674C96.354 221.035 95.4783 220.312 94.8647 219.507C94.2511 218.689 93.7781 218.011 93.4457 217.474H93.0621V233.045H88.5366ZM92.9854 207.273C92.9854 209.497 93.3114 211.46 93.9634 213.16C94.6154 214.847 95.5678 216.17 96.8207 217.129C98.0735 218.075 99.6076 218.548 101.423 218.548C103.315 218.548 104.894 218.05 106.159 217.053C107.438 216.043 108.397 214.687 109.036 212.987C109.688 211.274 110.014 209.369 110.014 207.273C110.014 205.202 109.694 203.335 109.055 201.673C108.429 199.999 107.476 198.675 106.198 197.704C104.932 196.719 103.341 196.227 101.423 196.227C99.582 196.227 98.0352 196.694 96.7823 197.627C95.5295 198.548 94.5835 199.839 93.9442 201.501C93.305 203.15 92.9854 205.074 92.9854 207.273ZM133.792 222.614C130.954 222.614 128.506 221.987 126.448 220.734C124.402 219.469 122.824 217.705 121.711 215.442C120.612 213.166 120.062 210.52 120.062 207.503C120.062 204.486 120.612 201.827 121.711 199.526C122.824 197.212 124.37 195.409 126.352 194.118C128.346 192.814 130.673 192.162 133.332 192.162C134.866 192.162 136.381 192.418 137.877 192.929C139.373 193.44 140.734 194.271 141.961 195.422C143.189 196.56 144.167 198.068 144.895 199.947C145.624 201.827 145.988 204.141 145.988 206.889V208.807H123.284V204.895H141.386C141.386 203.233 141.054 201.75 140.389 200.446C139.737 199.142 138.804 198.113 137.589 197.359C136.387 196.604 134.968 196.227 133.332 196.227C131.529 196.227 129.97 196.675 128.653 197.57C127.349 198.452 126.346 199.602 125.642 201.021C124.939 202.44 124.588 203.962 124.588 205.585V208.193C124.588 210.418 124.971 212.303 125.738 213.85C126.518 215.384 127.598 216.554 128.979 217.359C130.36 218.152 131.964 218.548 133.792 218.548C134.981 218.548 136.055 218.382 137.014 218.05C137.985 217.705 138.823 217.193 139.526 216.516C140.229 215.825 140.772 214.969 141.156 213.946L145.528 215.173C145.068 216.656 144.294 217.96 143.208 219.085C142.121 220.197 140.779 221.067 139.181 221.693C137.583 222.307 135.787 222.614 133.792 222.614ZM152.873 222V192.545H157.245V196.994H157.551C158.088 195.537 159.06 194.354 160.466 193.447C161.873 192.539 163.458 192.085 165.222 192.085C165.554 192.085 165.97 192.092 166.468 192.104C166.967 192.117 167.344 192.136 167.6 192.162V196.764C167.446 196.726 167.095 196.668 166.545 196.592C166.008 196.502 165.439 196.457 164.838 196.457C163.407 196.457 162.128 196.758 161.003 197.359C159.891 197.947 159.009 198.765 158.357 199.813C157.718 200.849 157.398 202.031 157.398 203.361V222H152.873Z" fill="#000AFF"/>
<path d="M4.93342 222H3.93342V223H4.93342V222ZM4.93342 182.727V181.727H3.93342V182.727H4.93342ZM9.6891 182.727H10.6891V181.727H9.6891V182.727ZM9.6891 200.216H8.6891V201.216H9.6891V200.216ZM30.6294 200.216V201.216H31.6294V200.216H30.6294ZM30.6294 182.727V181.727H29.6294V182.727H30.6294ZM35.3851 182.727H36.3851V181.727H35.3851V182.727ZM35.3851 222V223H36.3851V222H35.3851ZM30.6294 222H29.6294V223H30.6294V222ZM30.6294 204.435H31.6294V203.435H30.6294V204.435ZM9.6891 204.435V203.435H8.6891V204.435H9.6891ZM9.6891 222V223H10.6891V222H9.6891ZM5.93342 222V182.727H3.93342V222H5.93342ZM4.93342 183.727H9.6891V181.727H4.93342V183.727ZM8.6891 182.727V200.216H10.6891V182.727H8.6891ZM9.6891 201.216H30.6294V199.216H9.6891V201.216ZM31.6294 200.216V182.727H29.6294V200.216H31.6294ZM30.6294 183.727H35.3851V181.727H30.6294V183.727ZM34.3851 182.727V222H36.3851V182.727H34.3851ZM35.3851 221H30.6294V223H35.3851V221ZM31.6294 222V204.435H29.6294V222H31.6294ZM30.6294 203.435H9.6891V205.435H30.6294V203.435ZM8.6891 204.435V222H10.6891V204.435H8.6891ZM9.6891 221H4.93342V223H9.6891V221ZM49.2974 220.734L48.7712 221.585L48.7775 221.589L49.2974 220.734ZM44.5609 215.442L43.6605 215.877L43.6635 215.883L44.5609 215.442ZM44.5609 199.526L43.6596 199.092L43.6586 199.094L44.5609 199.526ZM49.2015 194.118L49.7475 194.956L49.7488 194.955L49.2015 194.118ZM60.7264 192.929L61.0499 191.983L61.0499 191.983L60.7264 192.929ZM64.8109 195.422L64.127 196.151L64.131 196.155L64.8109 195.422ZM67.7449 199.947L68.6772 199.586L68.6772 199.586L67.7449 199.947ZM68.8379 208.807V209.807H69.8379V208.807H68.8379ZM46.1333 208.807H45.1333V209.807H46.1333V208.807ZM46.1333 204.895V203.895H45.1333V204.895H46.1333ZM64.2356 204.895V205.895H65.2356V204.895H64.2356ZM63.2385 200.446L62.344 200.893L62.3476 200.9L63.2385 200.446ZM60.4387 197.359L59.9071 198.206L59.9112 198.208L60.4387 197.359ZM51.5027 197.57L52.063 198.398L52.0648 198.397L51.5027 197.57ZM48.492 201.021L47.596 200.577L47.596 200.577L48.492 201.021ZM48.5879 213.85L47.6919 214.294L47.6965 214.303L48.5879 213.85ZM51.8287 217.359L51.3248 218.223L51.3308 218.227L51.8287 217.359ZM59.8635 218.05L60.191 218.995L60.1982 218.992L59.8635 218.05ZM62.3755 216.516L63.0695 217.236L63.0761 217.229L62.3755 216.516ZM64.0055 213.946L64.2758 212.983L63.3916 212.735L63.0692 213.595L64.0055 213.946ZM68.3777 215.173L69.3327 215.47L69.6373 214.488L68.6479 214.211L68.3777 215.173ZM66.0574 219.085L66.7726 219.784L66.7766 219.78L66.0574 219.085ZM62.0304 221.693L62.3888 222.627L62.3953 222.624L62.0304 221.693ZM56.6419 221.614C53.9542 221.614 51.693 221.022 49.8174 219.88L48.7775 221.589C51.0183 222.953 53.6534 223.614 56.6419 223.614V221.614ZM49.8236 219.884C47.9458 218.722 46.4919 217.103 45.4584 215.001L43.6635 215.883C44.8543 218.306 46.5581 220.215 48.7712 221.585L49.8236 219.884ZM45.4613 215.007C44.4389 212.891 43.9118 210.398 43.9118 207.503H41.9118C41.9118 210.642 42.484 213.442 43.6605 215.877L45.4613 215.007ZM43.9118 207.503C43.9118 204.608 44.4388 202.101 45.4632 199.957L43.6586 199.094C42.4841 201.553 41.9118 204.364 41.9118 207.503H43.9118ZM45.4622 199.959C46.5022 197.795 47.9322 196.139 49.7475 194.956L48.6556 193.28C46.5078 194.68 44.844 196.628 43.6596 199.092L45.4622 199.959ZM49.7488 194.955C51.5619 193.769 53.6936 193.162 56.1816 193.162V191.162C53.3515 191.162 50.8298 191.858 48.6543 193.281L49.7488 194.955ZM56.1816 193.162C57.6023 193.162 59.0081 193.398 60.4029 193.875L61.0499 191.983C59.4532 191.437 57.8291 191.162 56.1816 191.162V193.162ZM60.4029 193.875C61.756 194.338 62.9964 195.091 64.127 196.151L65.4948 194.692C64.1709 193.451 62.6883 192.543 61.0499 191.983L60.4029 193.875ZM64.131 196.155C65.2266 197.171 66.1276 198.543 66.8125 200.309L68.6772 199.586C67.9047 197.594 66.8498 195.948 65.4908 194.689L64.131 196.155ZM66.8125 200.309C67.4835 202.039 67.8379 204.222 67.8379 206.889H69.8379C69.8379 204.059 69.4636 201.614 68.6772 199.586L66.8125 200.309ZM67.8379 206.889V208.807H69.8379V206.889H67.8379ZM68.8379 207.807H46.1333V209.807H68.8379V207.807ZM47.1333 208.807V204.895H45.1333V208.807H47.1333ZM46.1333 205.895H64.2356V203.895H46.1333V205.895ZM65.2356 204.895C65.2356 203.097 64.875 201.454 64.1294 199.992L62.3476 200.9C62.9314 202.046 63.2356 203.369 63.2356 204.895H65.2356ZM64.1329 199.999C63.3999 198.533 62.3412 197.363 60.9663 196.509L59.9112 198.208C60.9653 198.863 61.773 199.751 62.344 200.893L64.1329 199.999ZM60.9704 196.512C59.5861 195.643 57.9766 195.227 56.1816 195.227V197.227C57.6594 197.227 58.8879 197.566 59.9071 198.206L60.9704 196.512ZM56.1816 195.227C54.2061 195.227 52.4445 195.72 50.9406 196.743L52.0648 198.397C53.1944 197.629 54.5521 197.227 56.1816 197.227V195.227ZM50.9424 196.741C49.4942 197.721 48.3754 199.004 47.596 200.577L49.388 201.465C50.0149 200.2 50.9031 199.182 52.063 198.398L50.9424 196.741ZM47.596 200.577C46.8227 202.138 46.4373 203.812 46.4373 205.585H48.4373C48.4373 204.112 48.7551 202.743 49.388 201.465L47.596 200.577ZM46.4373 205.585V208.193H48.4373V205.585H46.4373ZM46.4373 208.193C46.4373 210.529 46.8396 212.576 47.692 214.294L49.4838 213.406C48.802 212.031 48.4373 210.306 48.4373 208.193H46.4373ZM47.6965 214.303C48.5564 215.995 49.7654 217.313 51.3248 218.223L52.3325 216.496C51.1306 215.794 50.1791 214.774 49.4793 213.397L47.6965 214.303ZM51.3308 218.227C52.8842 219.118 54.6653 219.548 56.6419 219.548V217.548C54.9622 217.548 53.5344 217.186 52.3265 216.492L51.3308 218.227ZM56.6419 219.548C57.9236 219.548 59.1105 219.369 60.191 218.995L59.5359 217.105C58.6988 217.395 57.738 217.548 56.6419 217.548V219.548ZM60.1982 218.992C61.2963 218.602 62.2581 218.018 63.0694 217.236L61.6816 215.796C61.0867 216.369 60.3738 216.807 59.5287 217.107L60.1982 218.992ZM63.0761 217.229C63.8941 216.426 64.5127 215.441 64.9418 214.297L63.0692 213.595C62.7313 214.496 62.2632 215.225 61.6749 215.802L63.0761 217.229ZM63.7352 214.909L68.1074 216.136L68.6479 214.211L64.2758 212.983L63.7352 214.909ZM67.4226 214.877C67.0091 216.209 66.3169 217.377 65.3381 218.39L66.7766 219.78C67.9711 218.543 68.8258 217.103 69.3327 215.47L67.4226 214.877ZM65.3421 218.386C64.3643 219.387 63.1453 220.182 61.6654 220.762L62.3953 222.624C64.1114 221.951 65.5771 221.008 66.7726 219.784L65.3421 218.386ZM61.6719 220.76C60.2055 221.323 58.5335 221.614 56.6419 221.614V223.614C58.7388 223.614 60.6592 223.291 62.3888 222.627L61.6719 220.76ZM80.2477 182.727H81.2477V181.727H80.2477V182.727ZM80.2477 222V223H81.2477V222H80.2477ZM75.7221 222H74.7221V223H75.7221V222ZM75.7221 182.727V181.727H74.7221V182.727H75.7221ZM79.2477 182.727V222H81.2477V182.727H79.2477ZM80.2477 221H75.7221V223H80.2477V221ZM76.7221 222V182.727H74.7221V222H76.7221ZM75.7221 183.727H80.2477V181.727H75.7221V183.727ZM88.5366 233.045H87.5366V234.045H88.5366V233.045ZM88.5366 192.545V191.545H87.5366V192.545H88.5366ZM92.9087 192.545H93.9087V191.545H92.9087V192.545ZM92.9087 197.224H91.9087V198.224H92.9087V197.224ZM93.4457 197.224V198.224H93.9884L94.2841 197.769L93.4457 197.224ZM94.8263 195.268L94.0248 194.67L94.0233 194.673L94.8263 195.268ZM97.396 193.121L97.8867 193.992L97.89 193.99L97.396 193.121ZM108.518 194.022L109.066 193.186L109.066 193.186L108.518 194.022ZM112.948 199.295L113.854 198.873L113.854 198.873L112.948 199.295ZM112.948 215.461L113.854 215.884L113.855 215.882L112.948 215.461ZM108.537 220.754L109.088 221.588L109.092 221.586L108.537 220.754ZM97.4918 221.674L97.002 222.546L97.0095 222.55L97.4918 221.674ZM94.8647 219.507L94.0647 220.107L94.0693 220.113L94.8647 219.507ZM93.4457 217.474L94.2959 216.948L94.0027 216.474H93.4457V217.474ZM93.0621 217.474V216.474H92.0621V217.474H93.0621ZM93.0621 233.045V234.045H94.0621V233.045H93.0621ZM93.9634 213.16L93.0297 213.518L93.0306 213.52L93.9634 213.16ZM96.8207 217.129L96.2129 217.923L96.2181 217.927L96.8207 217.129ZM106.159 217.053L106.778 217.838L106.779 217.837L106.159 217.053ZM109.036 212.987L108.101 212.632L108.1 212.635L109.036 212.987ZM109.055 201.673L108.118 202.024L108.122 202.032L109.055 201.673ZM106.198 197.704L105.584 198.493L105.593 198.5L106.198 197.704ZM96.7823 197.627L97.3744 198.433L97.3797 198.429L96.7823 197.627ZM93.9442 201.501L94.8767 201.862L94.8776 201.86L93.9442 201.501ZM89.5366 233.045V192.545H87.5366V233.045H89.5366ZM88.5366 193.545H92.9087V191.545H88.5366V193.545ZM91.9087 192.545V197.224H93.9087V192.545H91.9087ZM92.9087 198.224H93.4457V196.224H92.9087V198.224ZM94.2841 197.769C94.6006 197.283 95.0472 196.649 95.6294 195.864L94.0233 194.673C93.4294 195.473 92.9556 196.144 92.6072 196.679L94.2841 197.769ZM95.6279 195.866C96.126 195.199 96.8643 194.568 97.8867 193.992L96.9052 192.249C95.7032 192.926 94.7284 193.727 94.0248 194.671L95.6279 195.866ZM97.89 193.99C98.8089 193.468 100.138 193.162 101.96 193.162V191.162C99.9466 191.162 98.233 191.495 96.9019 192.251L97.89 193.99ZM101.96 193.162C104.265 193.162 106.256 193.735 107.97 194.858L109.066 193.186C106.996 191.829 104.615 191.162 101.96 191.162V193.162ZM107.97 194.858C109.69 195.986 111.05 197.592 112.041 199.718L113.854 198.873C112.723 196.448 111.131 194.539 109.066 193.186L107.97 194.858ZM112.041 199.718C113.028 201.834 113.539 204.369 113.539 207.349H115.539C115.539 204.143 114.99 201.308 113.854 198.873L112.041 199.718ZM113.539 207.349C113.539 210.357 113.028 212.911 112.041 215.04L113.855 215.882C114.99 213.434 115.539 210.581 115.539 207.349H113.539ZM112.041 215.038C111.049 217.167 109.693 218.781 107.983 219.922L109.092 221.586C111.14 220.22 112.724 218.306 113.854 215.884L112.041 215.038ZM107.987 219.919C106.285 221.041 104.314 221.614 102.037 221.614V223.614C104.669 223.614 107.031 222.946 109.088 221.588L107.987 219.919ZM102.037 221.614C100.241 221.614 98.912 221.314 97.9741 220.798L97.0095 222.55C98.3473 223.287 100.048 223.614 102.037 223.614V221.614ZM97.9816 220.802C96.9299 220.211 96.1709 219.571 95.6601 218.901L94.0693 220.113C94.7858 221.054 95.7782 221.858 97.002 222.546L97.9816 220.802ZM95.6647 218.907C95.0595 218.1 94.6061 217.449 94.2959 216.948L92.5954 218.001C92.95 218.574 93.4427 219.278 94.0647 220.107L95.6647 218.907ZM93.4457 216.474H93.0621V218.474H93.4457V216.474ZM92.0621 217.474V233.045H94.0621V217.474H92.0621ZM93.0621 232.045H88.5366V234.045H93.0621V232.045ZM91.9854 207.273C91.9854 209.593 92.3254 211.681 93.0297 213.518L94.8971 212.802C94.2975 211.238 93.9854 209.401 93.9854 207.273H91.9854ZM93.0306 213.52C93.739 215.354 94.7934 216.837 96.2129 217.923L97.4284 216.335C96.3422 215.504 95.4918 214.341 94.8962 212.799L93.0306 213.52ZM96.2181 217.927C97.6707 219.024 99.4255 219.548 101.423 219.548V217.548C99.7897 217.548 98.4763 217.126 97.4233 216.331L96.2181 217.927ZM101.423 219.548C103.499 219.548 105.307 218.997 106.778 217.838L105.541 216.267C104.481 217.102 103.131 217.548 101.423 217.548V219.548ZM106.779 217.837C108.217 216.702 109.276 215.19 109.972 213.339L108.1 212.635C107.517 214.185 106.659 215.383 105.54 216.268L106.779 217.837ZM109.97 213.343C110.671 211.501 111.014 209.474 111.014 207.273H109.014C109.014 209.265 108.704 211.047 108.101 212.632L109.97 213.343ZM111.014 207.273C111.014 205.099 110.678 203.108 109.988 201.314L108.122 202.032C108.71 203.563 109.014 205.305 109.014 207.273H111.014ZM109.992 201.323C109.307 199.492 108.248 198.006 106.803 196.908L105.593 198.5C106.704 199.345 107.55 200.505 108.118 202.024L109.992 201.323ZM106.812 196.914C105.338 195.768 103.518 195.227 101.423 195.227V197.227C103.163 197.227 104.526 197.671 105.584 198.493L106.812 196.914ZM101.423 195.227C99.4065 195.227 97.6397 195.742 96.1849 196.825L97.3797 198.429C98.4306 197.646 99.7576 197.227 101.423 197.227V195.227ZM96.1902 196.821C94.7618 197.871 93.7085 199.328 93.0109 201.142L94.8776 201.86C95.4584 200.35 96.2972 199.224 97.3744 198.433L96.1902 196.821ZM93.0118 201.139C92.3186 202.928 91.9854 204.979 91.9854 207.273H93.9854C93.9854 205.168 94.2915 203.372 94.8767 201.862L93.0118 201.139ZM126.448 220.734L125.922 221.585L125.928 221.589L126.448 220.734ZM121.711 215.442L120.811 215.877L120.814 215.883L121.711 215.442ZM121.711 199.526L120.81 199.092L120.809 199.094L121.711 199.526ZM126.352 194.118L126.898 194.956L126.899 194.955L126.352 194.118ZM137.877 192.929L138.2 191.983L138.2 191.983L137.877 192.929ZM141.961 195.422L141.277 196.151L141.281 196.155L141.961 195.422ZM144.895 199.947L145.828 199.586L145.828 199.586L144.895 199.947ZM145.988 208.807V209.807H146.988V208.807H145.988ZM123.284 208.807H122.284V209.807H123.284V208.807ZM123.284 204.895V203.895H122.284V204.895H123.284ZM141.386 204.895V205.895H142.386V204.895H141.386ZM140.389 200.446L139.494 200.893L139.498 200.9L140.389 200.446ZM137.589 197.359L137.058 198.206L137.062 198.208L137.589 197.359ZM128.653 197.57L129.213 198.398L129.215 198.397L128.653 197.57ZM125.642 201.021L124.746 200.577L124.746 200.577L125.642 201.021ZM125.738 213.85L124.842 214.294L124.847 214.303L125.738 213.85ZM128.979 217.359L128.475 218.223L128.481 218.227L128.979 217.359ZM137.014 218.05L137.341 218.995L137.349 218.992L137.014 218.05ZM139.526 216.516L140.22 217.236L140.227 217.229L139.526 216.516ZM141.156 213.946L141.426 212.983L140.542 212.735L140.22 213.595L141.156 213.946ZM145.528 215.173L146.483 215.47L146.788 214.488L145.798 214.211L145.528 215.173ZM143.208 219.085L143.923 219.784L143.927 219.78L143.208 219.085ZM139.181 221.693L139.539 222.627L139.546 222.624L139.181 221.693ZM133.792 221.614C131.105 221.614 128.843 221.022 126.968 219.88L125.928 221.589C128.169 222.953 130.804 223.614 133.792 223.614V221.614ZM126.974 219.884C125.096 218.722 123.642 217.103 122.609 215.001L120.814 215.883C122.005 218.306 123.709 220.215 125.922 221.585L126.974 219.884ZM122.612 215.007C121.589 212.891 121.062 210.398 121.062 207.503H119.062C119.062 210.642 119.634 213.442 120.811 215.877L122.612 215.007ZM121.062 207.503C121.062 204.608 121.589 202.101 122.614 199.957L120.809 199.094C119.635 201.553 119.062 204.364 119.062 207.503H121.062ZM122.613 199.959C123.653 197.795 125.083 196.139 126.898 194.956L125.806 193.28C123.658 194.68 121.994 196.628 120.81 199.092L122.613 199.959ZM126.899 194.955C128.712 193.769 130.844 193.162 133.332 193.162V191.162C130.502 191.162 127.98 191.858 125.805 193.281L126.899 194.955ZM133.332 193.162C134.753 193.162 136.158 193.398 137.553 193.875L138.2 191.983C136.604 191.437 134.98 191.162 133.332 191.162V193.162ZM137.553 193.875C138.906 194.338 140.147 195.091 141.277 196.151L142.645 194.692C141.321 193.451 139.839 192.543 138.2 191.983L137.553 193.875ZM141.281 196.155C142.377 197.171 143.278 198.543 143.963 200.309L145.828 199.586C145.055 197.594 144 195.948 142.641 194.689L141.281 196.155ZM143.963 200.309C144.634 202.039 144.988 204.222 144.988 206.889H146.988C146.988 204.059 146.614 201.614 145.828 199.586L143.963 200.309ZM144.988 206.889V208.807H146.988V206.889H144.988ZM145.988 207.807H123.284V209.807H145.988V207.807ZM124.284 208.807V204.895H122.284V208.807H124.284ZM123.284 205.895H141.386V203.895H123.284V205.895ZM142.386 204.895C142.386 203.097 142.025 201.454 141.28 199.992L139.498 200.9C140.082 202.046 140.386 203.369 140.386 204.895H142.386ZM141.283 199.999C140.55 198.533 139.492 197.363 138.117 196.509L137.062 198.208C138.116 198.863 138.923 199.751 139.494 200.893L141.283 199.999ZM138.121 196.512C136.737 195.643 135.127 195.227 133.332 195.227V197.227C134.81 197.227 136.038 197.566 137.058 198.206L138.121 196.512ZM133.332 195.227C131.356 195.227 129.595 195.72 128.091 196.743L129.215 198.397C130.345 197.629 131.703 197.227 133.332 197.227V195.227ZM128.093 196.741C126.645 197.721 125.526 199.004 124.746 200.577L126.538 201.465C127.165 200.2 128.054 199.182 129.213 198.398L128.093 196.741ZM124.746 200.577C123.973 202.138 123.588 203.812 123.588 205.585H125.588C125.588 204.112 125.905 202.743 126.538 201.465L124.746 200.577ZM123.588 205.585V208.193H125.588V205.585H123.588ZM123.588 208.193C123.588 210.529 123.99 212.576 124.842 214.294L126.634 213.406C125.952 212.031 125.588 210.306 125.588 208.193H123.588ZM124.847 214.303C125.707 215.995 126.916 217.313 128.475 218.223L129.483 216.496C128.281 215.794 127.329 214.774 126.63 213.397L124.847 214.303ZM128.481 218.227C130.035 219.118 131.816 219.548 133.792 219.548V217.548C132.113 217.548 130.685 217.186 129.477 216.492L128.481 218.227ZM133.792 219.548C135.074 219.548 136.261 219.369 137.341 218.995L136.686 217.105C135.849 217.395 134.888 217.548 133.792 217.548V219.548ZM137.349 218.992C138.447 218.602 139.408 218.018 140.22 217.236L138.832 215.796C138.237 216.369 137.524 216.807 136.679 217.107L137.349 218.992ZM140.227 217.229C141.045 216.426 141.663 215.441 142.092 214.297L140.22 213.595C139.882 214.496 139.414 215.225 138.825 215.802L140.227 217.229ZM140.886 214.909L145.258 216.136L145.798 214.211L141.426 212.983L140.886 214.909ZM144.573 214.877C144.159 216.209 143.467 217.377 142.488 218.39L143.927 219.78C145.121 218.543 145.976 217.103 146.483 215.47L144.573 214.877ZM142.492 218.386C141.515 219.387 140.296 220.182 138.816 220.762L139.546 222.624C141.262 221.951 142.728 221.008 143.923 219.784L142.492 218.386ZM138.822 220.76C137.356 221.323 135.684 221.614 133.792 221.614V223.614C135.889 223.614 137.81 223.291 139.539 222.627L138.822 220.76ZM152.873 222H151.873V223H152.873V222ZM152.873 192.545V191.545H151.873V192.545H152.873ZM157.245 192.545H158.245V191.545H157.245V192.545ZM157.245 196.994H156.245V197.994H157.245V196.994ZM157.551 196.994V197.994H158.249L158.49 197.34L157.551 196.994ZM160.466 193.447L159.924 192.607L159.924 192.607L160.466 193.447ZM167.6 192.162H168.6V191.257L167.699 191.167L167.6 192.162ZM167.6 196.764L167.357 197.734L168.6 198.045V196.764H167.6ZM166.545 196.592L166.381 197.578L166.394 197.58L166.407 197.582L166.545 196.592ZM161.003 197.359L161.471 198.243L161.474 198.241L161.003 197.359ZM158.357 199.813L157.508 199.285L157.506 199.288L158.357 199.813ZM157.398 222V223H158.398V222H157.398ZM153.873 222V192.545H151.873V222H153.873ZM152.873 193.545H157.245V191.545H152.873V193.545ZM156.245 192.545V196.994H158.245V192.545H156.245ZM157.245 197.994H157.551V195.994H157.245V197.994ZM158.49 197.34C158.946 196.102 159.769 195.087 161.009 194.287L159.924 192.607C158.351 193.622 157.231 194.972 156.613 196.649L158.49 197.34ZM161.009 194.287C162.244 193.489 163.639 193.085 165.222 193.085V191.085C163.276 191.085 161.501 191.589 159.924 192.607L161.009 194.287ZM165.222 193.085C165.543 193.085 165.949 193.091 166.443 193.104L166.494 191.105C165.991 191.092 165.566 191.085 165.222 191.085V193.085ZM166.443 193.104C166.935 193.117 167.282 193.135 167.5 193.157L167.699 191.167C167.406 191.138 166.999 191.118 166.494 191.105L166.443 193.104ZM166.6 192.162V196.764H168.6V192.162H166.6ZM167.842 195.794C167.627 195.74 167.218 195.676 166.683 195.601L166.407 197.582C166.972 197.661 167.266 197.712 167.357 197.734L167.842 195.794ZM166.709 195.605C166.113 195.506 165.489 195.457 164.838 195.457V197.457C165.39 197.457 165.903 197.498 166.381 197.578L166.709 195.605ZM164.838 195.457C163.263 195.457 161.819 195.789 160.532 196.477L161.474 198.241C162.437 197.726 163.55 197.457 164.838 197.457V195.457ZM160.536 196.475C159.27 197.144 158.255 198.083 157.508 199.285L159.206 200.341C159.763 199.446 160.512 198.75 161.471 198.243L160.536 196.475ZM157.506 199.288C156.76 200.496 156.398 201.864 156.398 203.361H158.398C158.398 202.199 158.675 201.202 159.208 200.338L157.506 199.288ZM156.398 203.361V222H158.398V203.361H156.398ZM157.398 221H152.873V223H157.398V221Z" fill="black"/>
</svg>
