<svg width="360" height="65" viewBox="0 0 360 65" fill="none" xmlns="http://www.w3.org/2000/svg">
<g clip-path="url(#clip0_15_300)">
<path d="M5.19318 52V12.7273H18.4631C21.544 12.7273 24.0625 13.2834 26.0185 14.3956C27.9872 15.495 29.4446 16.9844 30.3906 18.8636C31.3366 20.7429 31.8097 22.8395 31.8097 25.1534C31.8097 27.4673 31.3366 29.5703 30.3906 31.4624C29.4574 33.3544 28.0128 34.8629 26.0568 35.9879C24.1009 37.1001 21.5952 37.6562 18.5398 37.6562H9.02841V33.4375H18.3864C20.4957 33.4375 22.1896 33.0732 23.468 32.3445C24.7464 31.6158 25.6733 30.6314 26.2486 29.3913C26.8366 28.1385 27.1307 26.7259 27.1307 25.1534C27.1307 23.581 26.8366 22.1747 26.2486 20.9347C25.6733 19.6946 24.7401 18.723 23.4489 18.0199C22.1577 17.304 20.4446 16.946 18.3097 16.946H9.94886V52H5.19318ZM50.5064 52.6136C47.745 52.6136 45.3672 51.9616 43.3729 50.6577C41.3786 49.3537 39.8445 47.5575 38.7706 45.2692C37.6967 42.9808 37.1598 40.3665 37.1598 37.4261C37.1598 34.4347 37.7095 31.7947 38.8089 29.5064C39.9212 27.2053 41.468 25.4091 43.4496 24.1179C45.4439 22.8139 47.7706 22.1619 50.4297 22.1619C52.5007 22.1619 54.3672 22.5455 56.0291 23.3125C57.6911 24.0795 59.0526 25.1534 60.1136 26.5341C61.1747 27.9148 61.8331 29.5256 62.0888 31.3665H57.5632C57.218 30.0241 56.451 28.8352 55.2621 27.7997C54.0859 26.7514 52.5007 26.2273 50.5064 26.2273C48.7422 26.2273 47.1953 26.6875 45.8658 27.608C44.549 28.5156 43.5199 29.8004 42.7784 31.4624C42.0497 33.1115 41.6854 35.0483 41.6854 37.2727C41.6854 39.5483 42.0433 41.5298 42.7592 43.2173C43.4879 44.9048 44.5107 46.2152 45.8274 47.1484C47.157 48.0817 48.7166 48.5483 50.5064 48.5483C51.6825 48.5483 52.75 48.3438 53.7088 47.9347C54.6676 47.5256 55.4794 46.9375 56.1442 46.1705C56.8089 45.4034 57.282 44.483 57.5632 43.4091H62.0888C61.8331 45.1477 61.2003 46.7138 60.1903 48.1072C59.1932 49.4879 57.87 50.5874 56.2209 51.4055C54.5845 52.2109 52.6797 52.6136 50.5064 52.6136Z" fill="#FF0000"/>
<path d="M5.19318 52H4.19318V53H5.19318V52ZM5.19318 12.7273V11.7273H4.19318V12.7273H5.19318ZM26.0185 14.3956L25.5241 15.2649L25.5309 15.2687L26.0185 14.3956ZM30.3906 18.8636L29.4974 19.3133L29.4974 19.3133L30.3906 18.8636ZM30.3906 31.4624L29.4962 31.0151L29.4938 31.02L30.3906 31.4624ZM26.0568 35.9879L26.5511 36.8572L26.5554 36.8548L26.0568 35.9879ZM9.02841 37.6562H8.02841V38.6562H9.02841V37.6562ZM9.02841 33.4375V32.4375H8.02841V33.4375H9.02841ZM23.468 32.3445L22.9728 31.4757L22.9728 31.4757L23.468 32.3445ZM26.2486 29.3913L25.3433 28.9664L25.3414 28.9705L26.2486 29.3913ZM26.2486 20.9347L25.3414 21.3555L25.345 21.3631L26.2486 20.9347ZM23.4489 18.0199L22.9639 18.8945L22.9706 18.8981L23.4489 18.0199ZM9.94886 16.946V15.946H8.94886V16.946H9.94886ZM9.94886 52V53H10.9489V52H9.94886ZM6.19318 52V12.7273H4.19318V52H6.19318ZM5.19318 13.7273H18.4631V11.7273H5.19318V13.7273ZM18.4631 13.7273C21.4319 13.7273 23.7644 14.2642 25.5242 15.2649L26.5128 13.5263C24.3606 12.3025 21.6561 11.7273 18.4631 11.7273V13.7273ZM25.5309 15.2687C27.3383 16.278 28.6478 17.6255 29.4974 19.3133L31.2838 18.414C30.2414 16.3432 28.6361 14.712 26.506 13.5225L25.5309 15.2687ZM29.4974 19.3133C30.3664 21.0396 30.8097 22.9798 30.8097 25.1534H32.8097C32.8097 22.6992 32.3069 20.4462 31.2838 18.414L29.4974 19.3133ZM30.8097 25.1534C30.8097 27.3269 30.3665 29.2746 29.4962 31.0151L31.2851 31.9096C32.3068 29.866 32.8097 27.6078 32.8097 25.1534H30.8097ZM29.4938 31.02C28.6545 32.7216 27.3549 34.0877 25.5582 35.1211L26.5554 36.8548C28.6707 35.6381 30.2603 33.9872 31.2875 31.9047L29.4938 31.02ZM25.5625 35.1186C23.8016 36.1199 21.4814 36.6562 18.5398 36.6562V38.6562C21.709 38.6562 24.4001 38.0804 26.5511 36.8572L25.5625 35.1186ZM18.5398 36.6562H9.02841V38.6562H18.5398V36.6562ZM10.0284 37.6562V33.4375H8.02841V37.6562H10.0284ZM9.02841 34.4375H18.3864V32.4375H9.02841V34.4375ZM18.3864 34.4375C20.5986 34.4375 22.4825 34.0573 23.9632 33.2132L22.9728 31.4757C21.8968 32.089 20.3929 32.4375 18.3864 32.4375V34.4375ZM23.9632 33.2132C25.4076 32.39 26.4862 31.2554 27.1557 29.8122L25.3414 28.9705C24.8604 30.0074 24.0853 30.8416 22.9728 31.4757L23.9632 33.2132ZM27.1538 29.8162C27.8123 28.4134 28.1307 26.8527 28.1307 25.1534H26.1307C26.1307 26.599 25.861 27.8636 25.3433 28.9664L27.1538 29.8162ZM28.1307 25.1534C28.1307 23.4544 27.8124 21.8984 27.1521 20.5062L25.345 21.3631C25.8609 22.451 26.1307 23.7076 26.1307 25.1534H28.1307ZM27.1557 20.5138C26.4832 19.0642 25.3915 17.9391 23.9271 17.1417L22.9706 18.8981C24.0886 19.5069 24.8634 20.325 25.3414 21.3555L27.1557 20.5138ZM23.9338 17.1453C22.4426 16.3185 20.5435 15.946 18.3097 15.946V17.946C20.3458 17.946 21.8727 18.2894 22.964 18.8945L23.9338 17.1453ZM18.3097 15.946H9.94886V17.946H18.3097V15.946ZM8.94886 16.946V52H10.9489V16.946H8.94886ZM9.94886 51H5.19318V53H9.94886V51ZM43.3729 50.6577L42.8256 51.4946L42.8256 51.4946L43.3729 50.6577ZM38.8089 29.5064L37.9086 29.0712L37.9076 29.0733L38.8089 29.5064ZM43.4496 24.1179L43.9955 24.9557L43.9968 24.9549L43.4496 24.1179ZM60.1136 26.5341L60.9065 25.9247L60.9065 25.9247L60.1136 26.5341ZM62.0888 31.3665V32.3665H63.2373L63.0793 31.2289L62.0888 31.3665ZM57.5632 31.3665L56.5947 31.6155L56.7878 32.3665H57.5632V31.3665ZM55.2621 27.7997L54.5967 28.5463L54.6053 28.5538L55.2621 27.7997ZM45.8658 27.608L46.4333 28.4313L46.435 28.4301L45.8658 27.608ZM42.7784 31.4624L41.8652 31.0549L41.8637 31.0582L42.7784 31.4624ZM42.7592 43.2173L41.8386 43.6079L41.8412 43.6138L42.7592 43.2173ZM45.8274 47.1484L45.2492 47.9643L45.2529 47.9669L45.8274 47.1484ZM53.7088 47.9347L53.3164 47.0149L53.3164 47.0149L53.7088 47.9347ZM56.1442 46.1705L56.8999 46.8254L56.8999 46.8254L56.1442 46.1705ZM57.5632 43.4091V42.4091H56.7914L56.5958 43.1557L57.5632 43.4091ZM62.0888 43.4091L63.0781 43.5546L63.2466 42.4091H62.0888V43.4091ZM60.1903 48.1072L59.3806 47.5204L59.3797 47.5218L60.1903 48.1072ZM56.2209 51.4055L56.6625 52.3028L56.6653 52.3014L56.2209 51.4055ZM50.5064 51.6136C47.9078 51.6136 45.7272 51.0022 43.9201 49.8207L42.8256 51.4946C45.0072 52.9211 47.5823 53.6136 50.5064 53.6136V51.6136ZM43.9201 49.8207C42.0906 48.6245 40.6759 46.9754 39.6759 44.8444L37.8653 45.694C39.013 48.1396 40.6665 50.0829 42.8256 51.4946L43.9201 49.8207ZM39.6759 44.8444C38.6738 42.709 38.1598 40.2435 38.1598 37.4261H36.1598C36.1598 40.4895 36.7197 43.2527 37.8653 45.694L39.6759 44.8444ZM38.1598 37.4261C38.1598 34.558 38.6864 32.0706 39.7103 29.9394L37.9076 29.0733C36.7326 31.5189 36.1598 34.3113 36.1598 37.4261H38.1598ZM39.7093 29.9416C40.7489 27.7907 42.1789 26.1395 43.9955 24.9557L42.9036 23.2801C40.7572 24.6787 39.0935 26.6198 37.9086 29.0712L39.7093 29.9416ZM43.9968 24.9549C45.81 23.7694 47.9416 23.1619 50.4297 23.1619V21.1619C47.5995 21.1619 45.0778 21.8585 42.9023 23.2809L43.9968 24.9549ZM50.4297 23.1619C52.3751 23.1619 54.0958 23.5216 55.6101 24.2205L56.4482 22.4045C54.6386 21.5693 52.6263 21.1619 50.4297 21.1619V23.1619ZM55.6101 24.2205C57.1328 24.9233 58.3634 25.8977 59.3207 27.1434L60.9065 25.9247C59.7418 24.4091 58.2493 23.2358 56.4482 22.4045L55.6101 24.2205ZM59.3207 27.1434C60.269 28.3774 60.8648 29.8229 61.0983 31.504L63.0793 31.2289C62.8014 29.2282 62.0804 27.4522 60.9065 25.9247L59.3207 27.1434ZM62.0888 30.3665H57.5632V32.3665H62.0888V30.3665ZM58.5317 31.1174C58.1294 29.5529 57.2387 28.1951 55.9189 27.0456L54.6053 28.5538C55.6633 29.4753 56.3067 30.4954 56.5947 31.6155L58.5317 31.1174ZM55.9274 27.0532C54.5234 25.8017 52.6786 25.2273 50.5064 25.2273V27.2273C52.3228 27.2273 53.6485 27.7011 54.5967 28.5462L55.9274 27.0532ZM50.5064 25.2273C48.5582 25.2273 46.8086 25.739 45.2966 26.7858L46.435 28.4301C47.582 27.636 48.9262 27.2273 50.5064 27.2273V25.2273ZM45.2982 26.7846C43.8102 27.8103 42.6709 29.2489 41.8652 31.0549L43.6916 31.8698C44.3688 30.352 45.2878 29.2209 46.4333 28.4313L45.2982 26.7846ZM41.8637 31.0582C41.0672 32.8607 40.6854 34.9408 40.6854 37.2727H42.6854C42.6854 35.1558 43.0322 33.3623 43.6931 31.8665L41.8637 31.0582ZM40.6854 37.2727C40.6854 39.6511 41.0593 41.7709 41.8387 43.6079L43.6798 42.8268C43.0273 41.2888 42.6854 39.4455 42.6854 37.2727H40.6854ZM41.8412 43.6138C42.6322 45.4457 43.7629 46.911 45.2492 47.9643L46.4057 46.3326C45.2584 45.5194 44.3436 44.364 43.6773 42.8209L41.8412 43.6138ZM45.2529 47.9669C46.7678 49.0303 48.5329 49.5483 50.5064 49.5483V47.5483C48.9003 47.5483 47.5461 47.1331 46.4019 46.3299L45.2529 47.9669ZM50.5064 49.5483C51.8001 49.5483 53.0034 49.3228 54.1012 48.8544L53.3164 47.0149C52.4966 47.3647 51.5649 47.5483 50.5064 47.5483V49.5483ZM54.1012 48.8544C55.1958 48.3874 56.1329 47.7103 56.8999 46.8254L55.3885 45.5155C54.8259 46.1647 54.1395 46.6637 53.3164 47.0149L54.1012 48.8544ZM56.8999 46.8254C57.6742 45.9319 58.2142 44.8705 58.5306 43.6625L56.5958 43.1557C56.3497 44.0954 55.9437 44.8749 55.3885 45.5155L56.8999 46.8254ZM57.5632 44.4091H62.0888V42.4091H57.5632V44.4091ZM61.0994 43.2636C60.8667 44.8463 60.294 46.2603 59.3806 47.5204L61 48.6941C62.1066 47.1673 62.7995 45.4492 63.0781 43.5546L61.0994 43.2636ZM59.3797 47.5218C58.4852 48.7603 57.2922 49.7577 55.7764 50.5097L56.6653 52.3014C58.4479 51.417 59.9012 50.2156 61.001 48.6927L59.3797 47.5218ZM55.7793 50.5083C54.3042 51.2343 52.5556 51.6136 50.5064 51.6136V53.6136C52.8037 53.6136 54.8648 53.1875 56.6625 52.3028L55.7793 50.5083Z" fill="black"/>
<path d="M69.9227 52V12.7273H83.6528C86.3886 12.7273 88.645 13.2003 90.422 14.1463C92.199 15.0795 93.5221 16.3388 94.3914 17.924C95.2607 19.4964 95.6954 21.2415 95.6954 23.1591C95.6954 24.8466 95.395 26.2401 94.7941 27.3395C94.2061 28.4389 93.4262 29.3082 92.4546 29.9474C91.4958 30.5866 90.4539 31.0597 89.3289 31.3665V31.75C90.5306 31.8267 91.7387 32.2486 92.9532 33.0156C94.1677 33.7827 95.184 34.8821 96.0022 36.3139C96.8204 37.7457 97.2295 39.4972 97.2295 41.5682C97.2295 43.5369 96.782 45.3075 95.8872 46.88C94.9923 48.4524 93.5796 49.6989 91.6492 50.6193C89.7188 51.5398 87.2068 52 84.113 52H69.9227ZM74.6784 47.7812H84.113C87.2195 47.7812 89.4248 47.1804 90.7288 45.9787C92.0455 44.7642 92.7039 43.294 92.7039 41.5682C92.7039 40.2386 92.3651 39.0114 91.6876 37.8864C91.01 36.7486 90.0448 35.8409 88.792 35.1634C87.5392 34.473 86.0562 34.1278 84.3431 34.1278H74.6784V47.7812ZM74.6784 29.9858H83.4994C84.9312 29.9858 86.2224 29.7045 87.373 29.142C88.5363 28.5795 89.4568 27.7869 90.1343 26.7642C90.8247 25.7415 91.1698 24.5398 91.1698 23.1591C91.1698 21.4332 90.569 19.9695 89.3673 18.7678C88.1656 17.5533 86.2607 16.946 83.6528 16.946H74.6784V29.9858ZM122.993 39.9574V22.5455H127.518V52H122.993V47.0142H122.686C121.995 48.5099 120.922 49.782 119.464 50.8303C118.007 51.8658 116.166 52.3835 113.941 52.3835C112.101 52.3835 110.464 51.9808 109.032 51.1754C107.601 50.3572 106.476 49.13 105.657 47.4936C104.839 45.8445 104.43 43.767 104.43 41.2614V22.5455H108.956V40.9545C108.956 43.1023 109.557 44.8153 110.758 46.0938C111.973 47.3722 113.52 48.0114 115.399 48.0114C116.524 48.0114 117.668 47.7237 118.831 47.1484C120.008 46.5732 120.992 45.6911 121.785 44.5021C122.59 43.3132 122.993 41.7983 122.993 39.9574ZM135.807 52V22.5455H140.333V52H135.807ZM138.108 17.6364C137.226 17.6364 136.465 17.3359 135.826 16.7351C135.2 16.1342 134.887 15.4119 134.887 14.5682C134.887 13.7244 135.2 13.0021 135.826 12.4013C136.465 11.8004 137.226 11.5 138.108 11.5C138.99 11.5 139.745 11.8004 140.371 12.4013C141.01 13.0021 141.33 13.7244 141.33 14.5682C141.33 15.4119 141.01 16.1342 140.371 16.7351C139.745 17.3359 138.99 17.6364 138.108 17.6364ZM153.147 12.7273V52H148.622V12.7273H153.147ZM172.558 52.6136C170.104 52.6136 167.937 51.9936 166.057 50.7536C164.178 49.5007 162.708 47.7365 161.647 45.4609C160.586 43.1726 160.055 40.4688 160.055 37.3494C160.055 34.2557 160.586 31.571 161.647 29.2955C162.708 27.0199 164.185 25.2621 166.077 24.022C167.969 22.782 170.155 22.1619 172.635 22.1619C174.552 22.1619 176.067 22.4815 177.18 23.1207C178.305 23.7472 179.161 24.4631 179.749 25.2685C180.35 26.0611 180.817 26.7131 181.149 27.2244H181.533V12.7273H186.058V52H181.686V47.4744H181.149C180.817 48.0114 180.344 48.6889 179.73 49.5071C179.116 50.3125 178.241 51.0348 177.103 51.674C175.965 52.3004 174.45 52.6136 172.558 52.6136ZM173.172 48.5483C174.987 48.5483 176.521 48.0753 177.774 47.1293C179.027 46.1705 179.979 44.8473 180.631 43.1598C181.283 41.4595 181.609 39.4972 181.609 37.2727C181.609 35.0739 181.29 33.1499 180.65 31.5007C180.011 29.8388 179.065 28.5476 177.812 27.6271C176.56 26.6939 175.013 26.2273 173.172 26.2273C171.254 26.2273 169.656 26.7195 168.378 27.7038C167.112 28.6754 166.16 29.9986 165.521 31.6733C164.894 33.3352 164.581 35.2017 164.581 37.2727C164.581 39.3693 164.9 41.2741 165.54 42.9872C166.192 44.6875 167.15 46.0426 168.416 47.0526C169.695 48.0497 171.28 48.5483 173.172 48.5483Z" fill="#00FF29"/>
<path d="M69.9227 52H68.9227V53H69.9227V52ZM69.9227 12.7273V11.7273H68.9227V12.7273H69.9227ZM90.422 14.1463L89.952 15.029L89.957 15.0316L90.422 14.1463ZM94.3914 17.924L93.5146 18.4048L93.5163 18.4078L94.3914 17.924ZM94.7941 27.3395L93.9166 26.8599L93.9123 26.8678L94.7941 27.3395ZM92.4546 29.9474L91.905 29.112L91.8999 29.1154L92.4546 29.9474ZM89.3289 31.3665L89.0658 30.4017L88.3289 30.6027V31.3665H89.3289ZM89.3289 31.75H88.3289V32.6882L89.2652 32.748L89.3289 31.75ZM92.9532 33.0156L92.4192 33.8611L92.4192 33.8611L92.9532 33.0156ZM95.8872 46.88L96.7563 47.3746L96.7563 47.3746L95.8872 46.88ZM91.6492 50.6193L91.2188 49.7167L91.2188 49.7167L91.6492 50.6193ZM74.6784 47.7812H73.6784V48.7812H74.6784V47.7812ZM90.7288 45.9787L91.4065 46.714L91.4068 46.7138L90.7288 45.9787ZM91.6876 37.8864L90.8284 38.398L90.831 38.4023L91.6876 37.8864ZM88.792 35.1634L88.3094 36.0392L88.3163 36.043L88.792 35.1634ZM74.6784 34.1278V33.1278H73.6784V34.1278H74.6784ZM74.6784 29.9858H73.6784V30.9858H74.6784V29.9858ZM87.373 29.142L86.9377 28.2418L86.9337 28.2437L87.373 29.142ZM90.1343 26.7642L89.3054 26.2047L89.3007 26.2119L90.1343 26.7642ZM89.3673 18.7678L88.6564 19.4711L88.6602 19.4749L89.3673 18.7678ZM74.6784 16.946V15.946H73.6784V16.946H74.6784ZM70.9227 52V12.7273H68.9227V52H70.9227ZM69.9227 13.7273H83.6528V11.7273H69.9227V13.7273ZM83.6528 13.7273C86.2808 13.7273 88.3623 14.1827 89.952 15.029L90.8919 13.2636C88.9277 12.2179 86.4963 11.7273 83.6528 11.7273V13.7273ZM89.957 15.0316C91.5798 15.8839 92.7501 17.0107 93.5146 18.4048L95.2682 17.4432C94.2941 15.6668 92.8181 14.2752 90.8869 13.261L89.957 15.0316ZM93.5163 18.4078C94.2982 19.8222 94.6954 21.399 94.6954 23.1591H96.6954C96.6954 21.084 96.2233 19.1707 95.2666 17.4402L93.5163 18.4078ZM94.6954 23.1591C94.6954 24.7347 94.414 25.9497 93.9166 26.8599L95.6716 27.8191C96.3759 26.5304 96.6954 24.9584 96.6954 23.1591H94.6954ZM93.9123 26.8678C93.3971 27.8311 92.7273 28.571 91.905 29.112L93.0043 30.7829C94.1251 30.0454 95.015 29.0467 95.6759 27.8111L93.9123 26.8678ZM91.8999 29.1154C91.0316 29.6943 90.0884 30.1228 89.0658 30.4017L89.592 32.3312C90.8195 31.9965 91.96 31.479 93.0093 30.7795L91.8999 29.1154ZM88.3289 31.3665V31.75H90.3289V31.3665H88.3289ZM89.2652 32.748C90.2704 32.8121 91.319 33.1662 92.4192 33.8611L93.4872 32.1701C92.1584 31.3309 90.7908 30.8413 89.3926 30.752L89.2652 32.748ZM92.4192 33.8611C93.4761 34.5286 94.3849 35.4991 95.134 36.8101L96.8705 35.8178C95.9832 34.2651 94.8593 33.0367 93.4872 32.1701L92.4192 33.8611ZM95.134 36.8101C95.8464 38.0568 96.2295 39.6273 96.2295 41.5682H98.2295C98.2295 39.367 97.7944 37.4347 96.8705 35.8178L95.134 36.8101ZM96.2295 41.5682C96.2295 43.3792 95.8197 44.9768 95.0181 46.3854L96.7563 47.3746C97.7444 45.6383 98.2295 43.6946 98.2295 41.5682H96.2295ZM95.0181 46.3854C94.2416 47.7497 92.9991 48.8678 91.2188 49.7167L92.0796 51.522C94.1601 50.5299 95.7429 49.1552 96.7563 47.3746L95.0181 46.3854ZM91.2188 49.7167C89.4691 50.551 87.1194 51 84.113 51V53C87.2941 53 89.9685 52.5286 92.0796 51.522L91.2188 49.7167ZM84.113 51H69.9227V53H84.113V51ZM74.6784 48.7812H84.113V46.7812H74.6784V48.7812ZM84.113 48.7812C87.2981 48.7812 89.8214 48.1748 91.4065 46.714L90.0511 45.2433C89.0282 46.186 87.141 46.7812 84.113 46.7812V48.7812ZM91.4068 46.7138C92.92 45.3181 93.7039 43.585 93.7039 41.5682H91.7039C91.7039 43.003 91.1711 44.2103 90.0508 45.2436L91.4068 46.7138ZM93.7039 41.5682C93.7039 40.0592 93.3168 38.6532 92.5442 37.3704L90.831 38.4023C91.4135 39.3695 91.7039 40.4181 91.7039 41.5682H93.7039ZM92.5468 37.3747C91.77 36.0702 90.6668 35.0404 89.2677 34.2837L88.3163 36.043C89.4229 36.6414 90.2501 37.4269 90.8284 38.398L92.5468 37.3747ZM89.2746 34.2875C87.8473 33.5011 86.1917 33.1278 84.3431 33.1278V35.1278C85.9207 35.1278 87.231 35.445 88.3094 36.0392L89.2746 34.2875ZM84.3431 33.1278H74.6784V35.1278H84.3431V33.1278ZM73.6784 34.1278V47.7812H75.6784V34.1278H73.6784ZM74.6784 30.9858H83.4994V28.9858H74.6784V30.9858ZM83.4994 30.9858C85.0653 30.9858 86.5094 30.6773 87.8122 30.0404L86.9337 28.2437C85.9353 28.7318 84.7971 28.9858 83.4994 28.9858V30.9858ZM87.8083 30.0423C89.1242 29.406 90.1859 28.497 90.968 27.3165L89.3007 26.2119C88.7276 27.0769 87.9484 27.7531 86.9377 28.2418L87.8083 30.0423ZM90.9632 27.3237C91.7781 26.1164 92.1698 24.7145 92.1698 23.1591H90.1698C90.1698 24.365 89.8712 25.3665 89.3055 26.2047L90.9632 27.3237ZM92.1698 23.1591C92.1698 21.1726 91.4669 19.4531 90.0744 18.0606L88.6602 19.4749C89.6711 20.4858 90.1698 21.6938 90.1698 23.1591H92.1698ZM90.0781 18.0644C88.6097 16.5804 86.3896 15.946 83.6528 15.946V17.946C86.1319 17.946 87.7214 18.5262 88.6564 19.4711L90.0781 18.0644ZM83.6528 15.946H74.6784V17.946H83.6528V15.946ZM73.6784 16.946V29.9858H75.6784V16.946H73.6784ZM122.993 22.5455V21.5455H121.993V22.5455H122.993ZM127.518 22.5455H128.518V21.5455H127.518V22.5455ZM127.518 52V53H128.518V52H127.518ZM122.993 52H121.993V53H122.993V52ZM122.993 47.0142H123.993V46.0142H122.993V47.0142ZM122.686 47.0142V46.0142H122.046L121.778 46.5951L122.686 47.0142ZM119.464 50.8303L120.043 51.6454L120.048 51.6421L119.464 50.8303ZM109.032 51.1754L108.536 52.0437L108.542 52.047L109.032 51.1754ZM105.657 47.4936L104.762 47.938L104.763 47.9408L105.657 47.4936ZM104.43 22.5455V21.5455H103.43V22.5455H104.43ZM108.956 22.5455H109.956V21.5455H108.956V22.5455ZM110.758 46.0938L110.03 46.7787L110.033 46.7825L110.758 46.0938ZM118.831 47.1484L118.392 46.2501L118.388 46.252L118.831 47.1484ZM121.785 44.5021L120.957 43.9413L120.952 43.9474L121.785 44.5021ZM123.993 39.9574V22.5455H121.993V39.9574H123.993ZM122.993 23.5455H127.518V21.5455H122.993V23.5455ZM126.518 22.5455V52H128.518V22.5455H126.518ZM127.518 51H122.993V53H127.518V51ZM123.993 52V47.0142H121.993V52H123.993ZM122.993 46.0142H122.686V48.0142H122.993V46.0142ZM121.778 46.5951C121.166 47.9204 120.211 49.0616 118.88 50.0185L120.048 51.6421C121.633 50.5023 122.825 49.0995 123.594 47.4333L121.778 46.5951ZM118.885 50.0151C117.634 50.9038 116.01 51.3835 113.941 51.3835V53.3835C116.322 53.3835 118.379 52.8278 120.043 51.6454L118.885 50.0151ZM113.941 51.3835C112.251 51.3835 110.787 51.0153 109.523 50.3039L108.542 52.047C110.141 52.9464 111.95 53.3835 113.941 53.3835V51.3835ZM109.529 50.3072C108.287 49.5975 107.292 48.5262 106.552 47.0464L104.763 47.9408C105.659 49.7337 106.915 51.117 108.536 52.0437L109.529 50.3072ZM106.553 47.0492C105.824 45.5788 105.43 43.6657 105.43 41.2614H103.43C103.43 43.8684 103.855 46.1102 104.762 47.938L106.553 47.0492ZM105.43 41.2614V22.5455H103.43V41.2614H105.43ZM104.43 23.5455H108.956V21.5455H104.43V23.5455ZM107.956 22.5455V40.9545H109.956V22.5455H107.956ZM107.956 40.9545C107.956 43.2967 108.616 45.2752 110.03 46.7787L111.487 45.4088C110.497 44.3555 109.956 42.9078 109.956 40.9545H107.956ZM110.033 46.7825C111.45 48.2738 113.266 49.0114 115.399 49.0114V47.0114C113.774 47.0114 112.496 46.4705 111.483 45.405L110.033 46.7825ZM115.399 49.0114C116.7 49.0114 117.995 48.6778 119.275 48.0448L118.388 46.252C117.341 46.7697 116.348 47.0114 115.399 47.0114V49.0114ZM119.271 48.0467C120.62 47.3867 121.735 46.3792 122.617 45.0568L120.952 43.9474C120.249 45.0029 119.395 45.7596 118.392 46.2501L119.271 48.0467ZM122.612 45.063C123.558 43.6675 123.993 41.9421 123.993 39.9574H121.993C121.993 41.6544 121.622 42.9589 120.957 43.9413L122.612 45.063ZM135.807 52H134.807V53H135.807V52ZM135.807 22.5455V21.5455H134.807V22.5455H135.807ZM140.333 22.5455H141.333V21.5455H140.333V22.5455ZM140.333 52V53H141.333V52H140.333ZM135.826 16.7351L135.134 17.4568L135.141 17.4637L135.826 16.7351ZM135.826 12.4013L135.141 11.6726L135.134 11.6796L135.826 12.4013ZM140.371 12.4013L139.679 13.123L139.686 13.1299L140.371 12.4013ZM140.371 16.7351L139.686 16.0064L139.679 16.0134L140.371 16.7351ZM136.807 52V22.5455H134.807V52H136.807ZM135.807 23.5455H140.333V21.5455H135.807V23.5455ZM139.333 22.5455V52H141.333V22.5455H139.333ZM140.333 51H135.807V53H140.333V51ZM138.108 16.6364C137.479 16.6364 136.964 16.4319 136.511 16.0065L135.141 17.4637C135.967 18.24 136.973 18.6364 138.108 18.6364V16.6364ZM136.518 16.0134C136.082 15.595 135.887 15.1308 135.887 14.5682H133.887C133.887 15.6931 134.317 16.6734 135.134 17.4568L136.518 16.0134ZM135.887 14.5682C135.887 14.0056 136.082 13.5413 136.518 13.123L135.134 11.6796C134.317 12.4629 133.887 13.4433 133.887 14.5682H135.887ZM136.511 13.1299C136.964 12.7044 137.479 12.5 138.108 12.5V10.5C136.973 10.5 135.967 10.8964 135.141 11.6726L136.511 13.1299ZM138.108 12.5C138.737 12.5 139.242 12.7039 139.679 13.123L141.063 11.6796C140.247 10.8969 139.244 10.5 138.108 10.5V12.5ZM139.686 13.1299C140.133 13.5502 140.33 14.0125 140.33 14.5682H142.33C142.33 13.4364 141.887 12.454 141.056 11.6726L139.686 13.1299ZM140.33 14.5682C140.33 15.1239 140.133 15.5861 139.686 16.0065L141.056 17.4637C141.887 16.6823 142.33 15.7 142.33 14.5682H140.33ZM139.679 16.0134C139.242 16.4324 138.737 16.6364 138.108 16.6364V18.6364C139.244 18.6364 140.247 18.2394 141.063 17.4568L139.679 16.0134ZM153.147 12.7273H154.147V11.7273H153.147V12.7273ZM153.147 52V53H154.147V52H153.147ZM148.622 52H147.622V53H148.622V52ZM148.622 12.7273V11.7273H147.622V12.7273H148.622ZM152.147 12.7273V52H154.147V12.7273H152.147ZM153.147 51H148.622V53H153.147V51ZM149.622 52V12.7273H147.622V52H149.622ZM148.622 13.7273H153.147V11.7273H148.622V13.7273ZM166.057 50.7536L165.503 51.5856L165.507 51.5882L166.057 50.7536ZM161.647 45.4609L160.74 45.8816L160.741 45.8835L161.647 45.4609ZM161.647 29.2955L160.741 28.8728L160.741 28.8728L161.647 29.2955ZM166.077 24.022L165.528 23.1856L165.528 23.1856L166.077 24.022ZM177.18 23.1207L176.681 23.9878L176.693 23.9944L177.18 23.1207ZM179.749 25.2685L178.942 25.8582L178.947 25.8654L178.952 25.8726L179.749 25.2685ZM181.149 27.2244L180.311 27.7694L180.606 28.2244H181.149V27.2244ZM181.533 27.2244V28.2244H182.533V27.2244H181.533ZM181.533 12.7273V11.7273H180.533V12.7273H181.533ZM186.058 12.7273H187.058V11.7273H186.058V12.7273ZM186.058 52V53H187.058V52H186.058ZM181.686 52H180.686V53H181.686V52ZM181.686 47.4744H182.686V46.4744H181.686V47.4744ZM181.149 47.4744V46.4744H180.592L180.299 46.9481L181.149 47.4744ZM179.73 49.5071L180.525 50.1132L180.53 50.1071L179.73 49.5071ZM177.103 51.674L177.585 52.55L177.593 52.5458L177.103 51.674ZM177.774 47.1293L178.377 47.9273L178.382 47.9234L177.774 47.1293ZM180.631 43.1598L181.564 43.5202L181.565 43.5178L180.631 43.1598ZM180.65 31.5007L179.717 31.8597L179.718 31.8621L180.65 31.5007ZM177.812 27.6271L177.215 28.4291L177.22 28.433L177.812 27.6271ZM168.378 27.7038L168.987 28.4971L168.988 28.4962L168.378 27.7038ZM165.521 31.6733L164.586 31.3167L164.585 31.3206L165.521 31.6733ZM165.54 42.9872L164.603 43.3368L164.606 43.3453L165.54 42.9872ZM168.416 47.0526L167.792 47.8342L167.801 47.8411L168.416 47.0526ZM172.558 51.6136C170.281 51.6136 168.309 51.0414 166.608 49.9189L165.507 51.5882C167.564 52.9458 169.926 53.6136 172.558 53.6136V51.6136ZM166.612 49.9215C164.902 48.7814 163.546 47.1669 162.553 45.0383L160.741 45.8835C161.87 48.3062 163.454 50.22 165.503 51.5856L166.612 49.9215ZM162.554 45.0403C161.567 42.9111 161.055 40.357 161.055 37.3494H159.055C159.055 40.5805 159.605 43.4341 160.74 45.8816L162.554 45.0403ZM161.055 37.3494C161.055 34.3686 161.566 31.8342 162.553 29.7181L160.741 28.8728C159.605 31.3078 159.055 34.1428 159.055 37.3494H161.055ZM162.553 29.7181C163.545 27.5919 164.905 25.9855 166.625 24.8584L165.528 23.1856C163.464 24.5386 161.871 26.4478 160.741 28.8728L162.553 29.7181ZM166.625 24.8584C168.338 23.7353 170.33 23.1619 172.635 23.1619V21.1619C169.98 21.1619 167.599 21.8286 165.528 23.1856L166.625 24.8584ZM172.635 23.1619C174.458 23.1619 175.778 23.4684 176.681 23.9878L177.678 22.2537C176.357 21.4946 174.647 21.1619 172.635 21.1619V23.1619ZM176.693 23.9944C177.727 24.5702 178.46 25.1983 178.942 25.8582L180.557 24.6788C179.862 23.7278 178.882 22.9241 177.666 22.2471L176.693 23.9944ZM178.952 25.8726C179.546 26.6563 179.997 27.2868 180.311 27.7694L181.988 26.6794C181.636 26.1393 181.154 25.4659 180.546 24.6644L178.952 25.8726ZM181.149 28.2244H181.533V26.2244H181.149V28.2244ZM182.533 27.2244V12.7273H180.533V27.2244H182.533ZM181.533 13.7273H186.058V11.7273H181.533V13.7273ZM185.058 12.7273V52H187.058V12.7273H185.058ZM186.058 51H181.686V53H186.058V51ZM182.686 52V47.4744H180.686V52H182.686ZM181.686 46.4744H181.149V48.4744H181.686V46.4744ZM180.299 46.9481C179.989 47.4492 179.535 48.1001 178.93 48.9071L180.53 50.1071C181.152 49.2777 181.645 48.5736 181.999 48.0008L180.299 46.9481ZM178.935 48.9011C178.424 49.5715 177.665 50.2113 176.613 50.8022L177.593 52.5458C178.816 51.8583 179.809 51.0535 180.525 50.1131L178.935 48.9011ZM176.621 50.798C175.683 51.3143 174.353 51.6136 172.558 51.6136V53.6136C174.547 53.6136 176.247 53.2865 177.585 52.55L176.621 50.798ZM173.172 49.5483C175.169 49.5483 176.924 49.0242 178.377 47.9273L177.171 46.3312C176.118 47.1263 174.805 47.5483 173.172 47.5483V49.5483ZM178.382 47.9234C179.801 46.837 180.856 45.3537 181.564 43.5202L179.699 42.7994C179.103 44.3409 178.253 45.5039 177.166 46.3351L178.382 47.9234ZM181.565 43.5178C182.269 41.6811 182.609 39.5933 182.609 37.2727H180.609C180.609 39.401 180.297 41.238 179.698 42.8018L181.565 43.5178ZM182.609 37.2727C182.609 34.9792 182.276 32.928 181.583 31.1393L179.718 31.8621C180.303 33.3718 180.609 35.1685 180.609 37.2727H182.609ZM181.584 31.1417C180.886 29.3279 179.833 27.8707 178.404 26.8212L177.22 28.433C178.298 29.2244 179.136 30.3497 179.717 31.8597L181.584 31.1417ZM178.41 26.8252C176.955 25.7415 175.188 25.2273 173.172 25.2273V27.2273C174.837 27.2273 176.164 27.6463 177.215 28.4291L178.41 26.8252ZM173.172 25.2273C171.077 25.2273 169.252 25.7684 167.768 26.9115L168.988 28.4962C170.06 27.6705 171.432 27.2273 173.172 27.2273V25.2273ZM167.769 26.9106C166.339 28.0083 165.283 29.4911 164.586 31.3167L166.455 32.0299C167.036 30.5061 167.885 29.3425 168.987 28.4971L167.769 26.9106ZM164.585 31.3206C163.909 33.1123 163.581 35.1009 163.581 37.2727H165.581C165.581 35.3025 165.879 33.5582 166.456 32.026L164.585 31.3206ZM163.581 37.2727C163.581 39.4714 163.916 41.4968 164.603 43.3368L166.477 42.6376C165.885 41.0515 165.581 39.2672 165.581 37.2727H163.581ZM164.606 43.3453C165.314 45.1906 166.371 46.6998 167.792 47.8342L169.04 46.2709C167.93 45.3854 167.07 44.1844 166.473 42.6292L164.606 43.3453ZM167.801 47.8411C169.284 48.9974 171.096 49.5483 173.172 49.5483V47.5483C171.464 47.5483 170.106 47.1021 169.031 46.2641L167.801 47.8411Z" fill="black"/>
<path d="M195.933 52V12.7273H200.689V30.2159H221.629V12.7273H226.385V52H221.629V34.4347H200.689V52H195.933ZM247.642 52.6136C244.804 52.6136 242.356 51.9872 240.297 50.7344C238.252 49.4688 236.673 47.7045 235.561 45.4418C234.461 43.1662 233.912 40.5199 233.912 37.5028C233.912 34.4858 234.461 31.8267 235.561 29.5256C236.673 27.2116 238.22 25.4091 240.202 24.1179C242.196 22.8139 244.523 22.1619 247.182 22.1619C248.716 22.1619 250.231 22.4176 251.726 22.929C253.222 23.4403 254.584 24.2713 255.811 25.4219C257.038 26.5597 258.016 28.0682 258.745 29.9474C259.474 31.8267 259.838 34.1406 259.838 36.8892V38.8068H237.133V34.8949H255.236C255.236 33.233 254.903 31.75 254.238 30.446C253.586 29.142 252.653 28.1129 251.439 27.3587C250.237 26.6044 248.818 26.2273 247.182 26.2273C245.379 26.2273 243.819 26.6747 242.503 27.5696C241.199 28.4517 240.195 29.6023 239.492 31.0213C238.789 32.4403 238.437 33.9616 238.437 35.5852V38.1932C238.437 40.4176 238.821 42.3033 239.588 43.8501C240.368 45.3842 241.448 46.554 242.829 47.3594C244.209 48.152 245.814 48.5483 247.642 48.5483C248.831 48.5483 249.905 48.3821 250.863 48.0497C251.835 47.7045 252.672 47.1932 253.376 46.5156C254.079 45.8253 254.622 44.9687 255.006 43.946L259.378 45.1733C258.917 46.6562 258.144 47.9602 257.057 49.0852C255.971 50.1974 254.628 51.0668 253.03 51.6932C251.432 52.3068 249.636 52.6136 247.642 52.6136ZM271.248 12.7273V52H266.722V12.7273H271.248ZM279.537 63.0455V22.5455H283.909V27.2244H284.446C284.778 26.7131 285.238 26.0611 285.826 25.2685C286.427 24.4631 287.284 23.7472 288.396 23.1207C289.521 22.4815 291.042 22.1619 292.96 22.1619C295.44 22.1619 297.626 22.782 299.518 24.022C301.41 25.2621 302.887 27.0199 303.948 29.2955C305.009 31.571 305.539 34.2557 305.539 37.3494C305.539 40.4688 305.009 43.1726 303.948 45.4609C302.887 47.7365 301.417 49.5007 299.537 50.7536C297.658 51.9936 295.491 52.6136 293.037 52.6136C291.145 52.6136 289.63 52.3004 288.492 51.674C287.354 51.0348 286.478 50.3125 285.865 49.5071C285.251 48.6889 284.778 48.0114 284.446 47.4744H284.062V63.0455H279.537ZM283.985 37.2727C283.985 39.4972 284.311 41.4595 284.963 43.1598C285.615 44.8473 286.568 46.1705 287.821 47.1293C289.074 48.0753 290.608 48.5483 292.423 48.5483C294.315 48.5483 295.894 48.0497 297.159 47.0526C298.438 46.0426 299.397 44.6875 300.036 42.9872C300.688 41.2741 301.014 39.3693 301.014 37.2727C301.014 35.2017 300.694 33.3352 300.055 31.6733C299.429 29.9986 298.476 28.6754 297.198 27.7038C295.932 26.7195 294.341 26.2273 292.423 26.2273C290.582 26.2273 289.035 26.6939 287.782 27.6271C286.529 28.5476 285.583 29.8388 284.944 31.5007C284.305 33.1499 283.985 35.0739 283.985 37.2727ZM324.792 52.6136C321.954 52.6136 319.506 51.9872 317.448 50.7344C315.402 49.4688 313.824 47.7045 312.711 45.4418C311.612 43.1662 311.062 40.5199 311.062 37.5028C311.062 34.4858 311.612 31.8267 312.711 29.5256C313.824 27.2116 315.37 25.4091 317.352 24.1179C319.346 22.8139 321.673 22.1619 324.332 22.1619C325.866 22.1619 327.381 22.4176 328.877 22.929C330.373 23.4403 331.734 24.2713 332.961 25.4219C334.189 26.5597 335.167 28.0682 335.895 29.9474C336.624 31.8267 336.988 34.1406 336.988 36.8892V38.8068H314.284V34.8949H332.386C332.386 33.233 332.054 31.75 331.389 30.446C330.737 29.142 329.804 28.1129 328.589 27.3587C327.387 26.6044 325.968 26.2273 324.332 26.2273C322.529 26.2273 320.97 26.6747 319.653 27.5696C318.349 28.4517 317.346 29.6023 316.642 31.0213C315.939 32.4403 315.588 33.9616 315.588 35.5852V38.1932C315.588 40.4176 315.971 42.3033 316.738 43.8501C317.518 45.3842 318.598 46.554 319.979 47.3594C321.36 48.152 322.964 48.5483 324.792 48.5483C325.981 48.5483 327.055 48.3821 328.014 48.0497C328.985 47.7045 329.823 47.1932 330.526 46.5156C331.229 45.8253 331.772 44.9687 332.156 43.946L336.528 45.1733C336.068 46.6562 335.294 47.9602 334.208 49.0852C333.121 50.1974 331.779 51.0668 330.181 51.6932C328.583 52.3068 326.787 52.6136 324.792 52.6136ZM343.873 52V22.5455H348.245V26.9943H348.551C349.088 25.5369 350.06 24.3544 351.466 23.4467C352.873 22.5391 354.458 22.0852 356.222 22.0852C356.554 22.0852 356.97 22.0916 357.468 22.1044C357.967 22.1172 358.344 22.1364 358.6 22.1619V26.7642C358.446 26.7259 358.095 26.6683 357.545 26.5916C357.008 26.5021 356.439 26.4574 355.838 26.4574C354.407 26.4574 353.128 26.7578 352.003 27.3587C350.891 27.9467 350.009 28.7649 349.357 29.8132C348.718 30.8487 348.398 32.0312 348.398 33.3608V52H343.873Z" fill="#000AFF"/>
<path d="M195.933 52H194.933V53H195.933V52ZM195.933 12.7273V11.7273H194.933V12.7273H195.933ZM200.689 12.7273H201.689V11.7273H200.689V12.7273ZM200.689 30.2159H199.689V31.2159H200.689V30.2159ZM221.629 30.2159V31.2159H222.629V30.2159H221.629ZM221.629 12.7273V11.7273H220.629V12.7273H221.629ZM226.385 12.7273H227.385V11.7273H226.385V12.7273ZM226.385 52V53H227.385V52H226.385ZM221.629 52H220.629V53H221.629V52ZM221.629 34.4347H222.629V33.4347H221.629V34.4347ZM200.689 34.4347V33.4347H199.689V34.4347H200.689ZM200.689 52V53H201.689V52H200.689ZM196.933 52V12.7273H194.933V52H196.933ZM195.933 13.7273H200.689V11.7273H195.933V13.7273ZM199.689 12.7273V30.2159H201.689V12.7273H199.689ZM200.689 31.2159H221.629V29.2159H200.689V31.2159ZM222.629 30.2159V12.7273H220.629V30.2159H222.629ZM221.629 13.7273H226.385V11.7273H221.629V13.7273ZM225.385 12.7273V52H227.385V12.7273H225.385ZM226.385 51H221.629V53H226.385V51ZM222.629 52V34.4347H220.629V52H222.629ZM221.629 33.4347H200.689V35.4347H221.629V33.4347ZM199.689 34.4347V52H201.689V34.4347H199.689ZM200.689 51H195.933V53H200.689V51ZM240.297 50.7344L239.771 51.5848L239.777 51.5886L240.297 50.7344ZM235.561 45.4418L234.66 45.8768L234.663 45.8829L235.561 45.4418ZM235.561 29.5256L234.66 29.0924L234.659 29.0945L235.561 29.5256ZM240.202 24.1179L240.747 24.9557L240.749 24.9549L240.202 24.1179ZM251.726 22.929L252.05 21.9827L252.05 21.9827L251.726 22.929ZM255.811 25.4219L255.127 26.1514L255.131 26.1552L255.811 25.4219ZM258.745 29.9474L259.677 29.5859L259.677 29.5859L258.745 29.9474ZM259.838 38.8068V39.8068H260.838V38.8068H259.838ZM237.133 38.8068H236.133V39.8068H237.133V38.8068ZM237.133 34.8949V33.8949H236.133V34.8949H237.133ZM255.236 34.8949V35.8949H256.236V34.8949H255.236ZM254.238 30.446L253.344 30.8932L253.348 30.9002L254.238 30.446ZM251.439 27.3587L250.907 28.2057L250.911 28.2082L251.439 27.3587ZM242.503 27.5696L243.063 28.3979L243.065 28.3967L242.503 27.5696ZM239.492 31.0213L238.596 30.5773L238.596 30.5773L239.492 31.0213ZM239.588 43.8501L238.692 44.2944L238.696 44.3033L239.588 43.8501ZM242.829 47.3594L242.325 48.2232L242.331 48.2266L242.829 47.3594ZM250.863 48.0497L251.191 48.9946L251.198 48.992L250.863 48.0497ZM253.376 46.5156L254.069 47.2357L254.076 47.2292L253.376 46.5156ZM255.006 43.946L255.276 42.9832L254.392 42.7351L254.069 43.5949L255.006 43.946ZM259.378 45.1733L260.333 45.4697L260.637 44.4882L259.648 44.2105L259.378 45.1733ZM257.057 49.0852L257.773 49.7841L257.777 49.78L257.057 49.0852ZM253.03 51.6932L253.389 52.6267L253.395 52.6242L253.03 51.6932ZM247.642 51.6136C244.954 51.6136 242.693 51.0218 240.817 49.8802L239.777 51.5886C242.018 52.9526 244.653 53.6136 247.642 53.6136V51.6136ZM240.824 49.884C238.946 48.7221 237.492 47.1034 236.458 45.0006L234.663 45.8829C235.854 48.3057 237.558 50.2154 239.771 51.5848L240.824 49.884ZM236.461 45.0067C235.439 42.8906 234.912 40.3981 234.912 37.5028H232.912C232.912 40.6417 233.484 43.4418 234.66 45.8768L236.461 45.0067ZM234.912 37.5028C234.912 34.6079 235.439 32.1007 236.463 29.9567L234.659 29.0945C233.484 31.5527 232.912 34.3637 232.912 37.5028H234.912ZM236.462 29.9588C237.502 27.7951 238.932 26.1386 240.747 24.9557L239.656 23.2801C237.508 24.6796 235.844 26.6282 234.66 29.0924L236.462 29.9588ZM240.749 24.9549C242.562 23.7694 244.694 23.1619 247.182 23.1619V21.1619C244.351 21.1619 241.83 21.8585 239.654 23.2809L240.749 24.9549ZM247.182 23.1619C248.602 23.1619 250.008 23.3983 251.403 23.8752L252.05 21.9827C250.453 21.4369 248.829 21.1619 247.182 21.1619V23.1619ZM251.403 23.8752C252.756 24.3378 253.996 25.0915 255.127 26.1514L256.495 24.6923C255.171 23.4511 253.688 22.5429 252.05 21.9827L251.403 23.8752ZM255.131 26.1552C256.227 27.1709 257.128 28.5427 257.812 30.309L259.677 29.5859C258.905 27.5937 257.85 25.9485 256.491 24.6885L255.131 26.1552ZM257.812 30.309C258.483 32.0393 258.838 34.2222 258.838 36.8892H260.838C260.838 34.059 260.464 31.6141 259.677 29.5859L257.812 30.309ZM258.838 36.8892V38.8068H260.838V36.8892H258.838ZM259.838 37.8068H237.133V39.8068H259.838V37.8068ZM238.133 38.8068V34.8949H236.133V38.8068H238.133ZM237.133 35.8949H255.236V33.8949H237.133V35.8949ZM256.236 34.8949C256.236 33.0966 255.875 31.4545 255.129 29.9918L253.348 30.9002C253.931 32.0455 254.236 33.3693 254.236 34.8949H256.236ZM255.133 29.9988C254.4 28.5328 253.341 27.363 251.966 26.5092L250.911 28.2082C251.965 28.8628 252.773 29.7513 253.344 30.8932L255.133 29.9988ZM251.97 26.5117C250.586 25.6429 248.977 25.2273 247.182 25.2273V27.2273C248.659 27.2273 249.888 27.5659 250.907 28.2056L251.97 26.5117ZM247.182 25.2273C245.206 25.2273 243.444 25.7205 241.941 26.7425L243.065 28.3967C244.194 27.629 245.552 27.2273 247.182 27.2273V25.2273ZM241.942 26.7413C240.494 27.7209 239.375 29.0043 238.596 30.5773L240.388 31.4653C241.015 30.2003 241.903 29.1825 243.063 28.3979L241.942 26.7413ZM238.596 30.5773C237.823 32.1379 237.437 33.8116 237.437 35.5852H239.437C239.437 34.1117 239.755 32.7428 240.388 31.4653L238.596 30.5773ZM237.437 35.5852V38.1932H239.437V35.5852H237.437ZM237.437 38.1932C237.437 40.5288 237.84 42.5755 238.692 44.2944L240.484 43.4059C239.802 42.031 239.437 40.3064 239.437 38.1932H237.437ZM238.696 44.3033C239.556 45.9949 240.765 47.3135 242.325 48.2232L243.333 46.4956C242.131 45.7945 241.179 44.7735 240.479 43.397L238.696 44.3033ZM242.331 48.2266C243.884 49.1184 245.665 49.5483 247.642 49.5483V47.5483C245.962 47.5483 244.534 47.1855 243.327 46.4921L242.331 48.2266ZM247.642 49.5483C248.924 49.5483 250.111 49.3691 251.191 48.9946L250.536 47.1049C249.699 47.3951 248.738 47.5483 247.642 47.5483V49.5483ZM251.198 48.992C252.296 48.6019 253.258 48.0175 254.069 47.2357L252.682 45.7955C252.087 46.3688 251.374 46.8072 250.529 47.1074L251.198 48.992ZM254.076 47.2292C254.894 46.4261 255.513 45.4415 255.942 44.2971L254.069 43.5949C253.731 44.496 253.263 45.2245 252.675 45.8021L254.076 47.2292ZM254.735 44.9088L259.107 46.1361L259.648 44.2105L255.276 42.9832L254.735 44.9088ZM258.423 44.8769C258.009 46.2093 257.317 47.3771 256.338 48.3905L257.777 49.78C258.971 48.5433 259.826 47.1032 260.333 45.4697L258.423 44.8769ZM256.342 48.3864C255.364 49.3872 254.145 50.182 252.665 50.7622L253.395 52.6242C255.111 51.9515 256.577 51.0077 257.773 49.7841L256.342 48.3864ZM252.672 50.7596C251.205 51.3227 249.534 51.6136 247.642 51.6136V53.6136C249.739 53.6136 251.659 53.2909 253.389 52.6267L252.672 50.7596ZM271.248 12.7273H272.248V11.7273H271.248V12.7273ZM271.248 52V53H272.248V52H271.248ZM266.722 52H265.722V53H266.722V52ZM266.722 12.7273V11.7273H265.722V12.7273H266.722ZM270.248 12.7273V52H272.248V12.7273H270.248ZM271.248 51H266.722V53H271.248V51ZM267.722 52V12.7273H265.722V52H267.722ZM266.722 13.7273H271.248V11.7273H266.722V13.7273ZM279.537 63.0455H278.537V64.0455H279.537V63.0455ZM279.537 22.5455V21.5455H278.537V22.5455H279.537ZM283.909 22.5455H284.909V21.5455H283.909V22.5455ZM283.909 27.2244H282.909V28.2244H283.909V27.2244ZM284.446 27.2244V28.2244H284.988L285.284 27.7694L284.446 27.2244ZM285.826 25.2685L285.025 24.6705L285.023 24.6726L285.826 25.2685ZM288.396 23.1207L288.887 23.9921L288.89 23.9902L288.396 23.1207ZM299.518 24.022L300.066 23.1856L300.066 23.1856L299.518 24.022ZM303.948 29.2955L304.854 28.8728L304.854 28.8728L303.948 29.2955ZM303.948 45.4609L304.854 45.8835L304.855 45.8816L303.948 45.4609ZM299.537 50.7536L300.088 51.5882L300.092 51.5856L299.537 50.7536ZM288.492 51.674L288.002 52.5459L288.01 52.55L288.492 51.674ZM285.865 49.5071L285.065 50.1071L285.069 50.1131L285.865 49.5071ZM284.446 47.4744L285.296 46.9481L285.003 46.4744H284.446V47.4744ZM284.062 47.4744V46.4744H283.062V47.4744H284.062ZM284.062 63.0455V64.0455H285.062V63.0455H284.062ZM284.963 43.1598L284.03 43.5178L284.031 43.5202L284.963 43.1598ZM287.821 47.1293L287.213 47.9234L287.218 47.9273L287.821 47.1293ZM297.159 47.0526L297.778 47.838L297.779 47.8372L297.159 47.0526ZM300.036 42.9872L299.101 42.6315L299.1 42.6353L300.036 42.9872ZM300.055 31.6733L299.118 32.0236L299.122 32.0323L300.055 31.6733ZM297.198 27.7038L296.584 28.4932L296.593 28.5L297.198 27.7038ZM287.782 27.6271L288.374 28.433L288.38 28.4291L287.782 27.6271ZM284.944 31.5007L285.877 31.8621L285.878 31.8597L284.944 31.5007ZM280.537 63.0455V22.5455H278.537V63.0455H280.537ZM279.537 23.5455H283.909V21.5455H279.537V23.5455ZM282.909 22.5455V27.2244H284.909V22.5455H282.909ZM283.909 28.2244H284.446V26.2244H283.909V28.2244ZM285.284 27.7694C285.601 27.2826 286.047 26.6491 286.629 25.8643L285.023 24.6726C284.429 25.4731 283.956 26.1435 283.607 26.6794L285.284 27.7694ZM286.628 25.8664C287.126 25.1987 287.864 24.5679 288.887 23.992L287.905 22.2494C286.703 22.9265 285.728 23.7274 285.025 24.6705L286.628 25.8664ZM288.89 23.9902C289.809 23.4681 291.138 23.1619 292.96 23.1619V21.1619C290.947 21.1619 289.233 21.495 287.902 22.2513L288.89 23.9902ZM292.96 23.1619C295.265 23.1619 297.256 23.7353 298.97 24.8584L300.066 23.1856C297.996 21.8286 295.615 21.1619 292.96 21.1619V23.1619ZM298.97 24.8584C300.69 25.9855 302.05 27.5919 303.041 29.7181L304.854 28.8728C303.723 26.4478 302.131 24.5386 300.066 23.1856L298.97 24.8584ZM303.041 29.7181C304.028 31.8342 304.539 34.3686 304.539 37.3494H306.539C306.539 34.1428 305.99 31.3078 304.854 28.8728L303.041 29.7181ZM304.539 37.3494C304.539 40.357 304.028 42.9111 303.041 45.0403L304.855 45.8816C305.99 43.4341 306.539 40.5805 306.539 37.3494H304.539ZM303.041 45.0383C302.049 47.1669 300.693 48.7814 298.983 49.9215L300.092 51.5856C302.14 50.22 303.724 48.3062 304.854 45.8835L303.041 45.0383ZM298.987 49.9189C297.285 51.0414 295.314 51.6136 293.037 51.6136V53.6136C295.669 53.6136 298.031 52.9458 300.088 51.5882L298.987 49.9189ZM293.037 51.6136C291.241 51.6136 289.912 51.3143 288.974 50.798L288.01 52.55C289.347 53.2865 291.048 53.6136 293.037 53.6136V51.6136ZM288.982 50.8022C287.93 50.2113 287.171 49.5715 286.66 48.9011L285.069 50.1131C285.786 51.0535 286.778 51.8583 288.002 52.5458L288.982 50.8022ZM286.665 48.9071C286.059 48.1001 285.606 47.4492 285.296 46.9481L283.595 48.0008C283.95 48.5736 284.443 49.2777 285.065 50.1071L286.665 48.9071ZM284.446 46.4744H284.062V48.4744H284.446V46.4744ZM283.062 47.4744V63.0455H285.062V47.4744H283.062ZM284.062 62.0455H279.537V64.0455H284.062V62.0455ZM282.985 37.2727C282.985 39.5933 283.325 41.6811 284.03 43.5178L285.897 42.8018C285.297 41.238 284.985 39.401 284.985 37.2727H282.985ZM284.031 43.5202C284.739 45.3537 285.793 46.837 287.213 47.9234L288.428 46.3351C287.342 45.5039 286.492 44.3409 285.896 42.7994L284.031 43.5202ZM287.218 47.9273C288.671 49.0242 290.426 49.5483 292.423 49.5483V47.5483C290.79 47.5483 289.476 47.1263 288.423 46.3312L287.218 47.9273ZM292.423 49.5483C294.499 49.5483 296.307 48.9974 297.778 47.838L296.541 46.2671C295.481 47.102 294.131 47.5483 292.423 47.5483V49.5483ZM297.779 47.8372C299.217 46.7019 300.276 45.1896 300.972 43.3391L299.1 42.6353C298.517 44.1854 297.659 45.3834 296.54 46.2679L297.779 47.8372ZM300.97 43.3429C301.671 41.5011 302.014 39.4736 302.014 37.2727H300.014C300.014 39.265 299.704 41.0472 299.101 42.6315L300.97 43.3429ZM302.014 37.2727C302.014 35.0987 301.678 33.1079 300.988 31.3143L299.122 32.0323C299.71 33.5626 300.014 35.3047 300.014 37.2727H302.014ZM300.992 31.323C300.307 29.492 299.248 28.0063 297.803 26.9077L296.593 28.5C297.704 29.3446 298.55 30.5051 299.118 32.0236L300.992 31.323ZM297.812 26.9145C296.338 25.7683 294.518 25.2273 292.423 25.2273V27.2273C294.163 27.2273 295.526 27.6706 296.584 28.4932L297.812 26.9145ZM292.423 25.2273C290.406 25.2273 288.64 25.7415 287.185 26.8252L288.38 28.4291C289.431 27.6463 290.758 27.2273 292.423 27.2273V25.2273ZM287.19 26.8212C285.762 27.8707 284.709 29.3279 284.011 31.1417L285.878 31.8597C286.458 30.3497 287.297 29.2244 288.374 28.433L287.19 26.8212ZM284.012 31.1393C283.319 32.928 282.985 34.9792 282.985 37.2727H284.985C284.985 35.1685 285.292 33.3718 285.877 31.8621L284.012 31.1393ZM317.448 50.7344L316.922 51.5848L316.928 51.5886L317.448 50.7344ZM312.711 45.4418L311.811 45.8768L311.814 45.8829L312.711 45.4418ZM312.711 29.5256L311.81 29.0924L311.809 29.0945L312.711 29.5256ZM317.352 24.1179L317.898 24.9557L317.899 24.9549L317.352 24.1179ZM328.877 22.929L329.2 21.9827L329.2 21.9827L328.877 22.929ZM332.961 25.4219L332.277 26.1514L332.281 26.1552L332.961 25.4219ZM335.895 29.9474L336.828 29.5859L336.828 29.5859L335.895 29.9474ZM336.988 38.8068V39.8068H337.988V38.8068H336.988ZM314.284 38.8068H313.284V39.8068H314.284V38.8068ZM314.284 34.8949V33.8949H313.284V34.8949H314.284ZM332.386 34.8949V35.8949H333.386V34.8949H332.386ZM331.389 30.446L330.494 30.8932L330.498 30.9002L331.389 30.446ZM328.589 27.3587L328.058 28.2057L328.062 28.2082L328.589 27.3587ZM319.653 27.5696L320.213 28.3979L320.215 28.3967L319.653 27.5696ZM316.642 31.0213L315.746 30.5773L315.746 30.5773L316.642 31.0213ZM316.738 43.8501L315.842 44.2944L315.847 44.3033L316.738 43.8501ZM319.979 47.3594L319.475 48.2232L319.481 48.2266L319.979 47.3594ZM328.014 48.0497L328.341 48.9946L328.349 48.992L328.014 48.0497ZM330.526 46.5156L331.22 47.2357L331.227 47.2292L330.526 46.5156ZM332.156 43.946L332.426 42.9832L331.542 42.7351L331.22 43.5949L332.156 43.946ZM336.528 45.1733L337.483 45.4697L337.788 44.4882L336.798 44.2105L336.528 45.1733ZM334.208 49.0852L334.923 49.7841L334.927 49.78L334.208 49.0852ZM330.181 51.6932L330.539 52.6267L330.546 52.6242L330.181 51.6932ZM324.792 51.6136C322.105 51.6136 319.843 51.0218 317.968 49.8802L316.928 51.5886C319.169 52.9526 321.804 53.6136 324.792 53.6136V51.6136ZM317.974 49.884C316.096 48.7221 314.642 47.1034 313.609 45.0006L311.814 45.8829C313.005 48.3057 314.709 50.2154 316.922 51.5848L317.974 49.884ZM313.612 45.0067C312.589 42.8906 312.062 40.3981 312.062 37.5028H310.062C310.062 40.6417 310.634 43.4418 311.811 45.8768L313.612 45.0067ZM312.062 37.5028C312.062 34.6079 312.589 32.1007 313.614 29.9567L311.809 29.0945C310.635 31.5527 310.062 34.3637 310.062 37.5028H312.062ZM313.613 29.9588C314.653 27.7951 316.083 26.1386 317.898 24.9557L316.806 23.2801C314.658 24.6796 312.994 26.6282 311.81 29.0924L313.613 29.9588ZM317.899 24.9549C319.712 23.7694 321.844 23.1619 324.332 23.1619V21.1619C321.502 21.1619 318.98 21.8585 316.805 23.2809L317.899 24.9549ZM324.332 23.1619C325.753 23.1619 327.158 23.3983 328.553 23.8752L329.2 21.9827C327.604 21.4369 325.98 21.1619 324.332 21.1619V23.1619ZM328.553 23.8752C329.906 24.3378 331.147 25.0915 332.277 26.1514L333.645 24.6923C332.321 23.4511 330.839 22.5429 329.2 21.9827L328.553 23.8752ZM332.281 26.1552C333.377 27.1709 334.278 28.5427 334.963 30.309L336.828 29.5859C336.055 27.5937 335 25.9485 333.641 24.6885L332.281 26.1552ZM334.963 30.309C335.634 32.0393 335.988 34.2222 335.988 36.8892H337.988C337.988 34.059 337.614 31.6141 336.828 29.5859L334.963 30.309ZM335.988 36.8892V38.8068H337.988V36.8892H335.988ZM336.988 37.8068H314.284V39.8068H336.988V37.8068ZM315.284 38.8068V34.8949H313.284V38.8068H315.284ZM314.284 35.8949H332.386V33.8949H314.284V35.8949ZM333.386 34.8949C333.386 33.0966 333.025 31.4545 332.28 29.9918L330.498 30.9002C331.082 32.0455 331.386 33.3693 331.386 34.8949H333.386ZM332.283 29.9988C331.55 28.5328 330.492 27.363 329.117 26.5092L328.062 28.2082C329.116 28.8628 329.923 29.7513 330.494 30.8932L332.283 29.9988ZM329.121 26.5117C327.737 25.6429 326.127 25.2273 324.332 25.2273V27.2273C325.81 27.2273 327.038 27.5659 328.058 28.2056L329.121 26.5117ZM324.332 25.2273C322.356 25.2273 320.595 25.7205 319.091 26.7425L320.215 28.3967C321.345 27.629 322.703 27.2273 324.332 27.2273V25.2273ZM319.093 26.7413C317.645 27.7209 316.526 29.0043 315.746 30.5773L317.538 31.4653C318.165 30.2003 319.054 29.1825 320.213 28.3979L319.093 26.7413ZM315.746 30.5773C314.973 32.1379 314.588 33.8116 314.588 35.5852H316.588C316.588 34.1117 316.905 32.7428 317.538 31.4653L315.746 30.5773ZM314.588 35.5852V38.1932H316.588V35.5852H314.588ZM314.588 38.1932C314.588 40.5288 314.99 42.5755 315.842 44.2944L317.634 43.4059C316.952 42.031 316.588 40.3064 316.588 38.1932H314.588ZM315.847 44.3033C316.707 45.9949 317.916 47.3135 319.475 48.2232L320.483 46.4956C319.281 45.7945 318.329 44.7735 317.63 43.397L315.847 44.3033ZM319.481 48.2266C321.035 49.1184 322.816 49.5483 324.792 49.5483V47.5483C323.113 47.5483 321.685 47.1855 320.477 46.4921L319.481 48.2266ZM324.792 49.5483C326.074 49.5483 327.261 49.3691 328.341 48.9946L327.686 47.1049C326.849 47.3951 325.888 47.5483 324.792 47.5483V49.5483ZM328.349 48.992C329.447 48.6019 330.408 48.0175 331.22 47.2357L329.832 45.7955C329.237 46.3688 328.524 46.8072 327.679 47.1074L328.349 48.992ZM331.227 47.2292C332.045 46.4261 332.663 45.4415 333.092 44.2971L331.22 43.5949C330.882 44.496 330.414 45.2245 329.825 45.8021L331.227 47.2292ZM331.886 44.9088L336.258 46.1361L336.798 44.2105L332.426 42.9832L331.886 44.9088ZM335.573 44.8769C335.159 46.2093 334.467 47.3771 333.488 48.3905L334.927 49.78C336.121 48.5433 336.976 47.1032 337.483 45.4697L335.573 44.8769ZM333.492 48.3864C332.515 49.3872 331.296 50.182 329.816 50.7622L330.546 52.6242C332.262 51.9515 333.728 51.0077 334.923 49.7841L333.492 48.3864ZM329.822 50.7596C328.356 51.3227 326.684 51.6136 324.792 51.6136V53.6136C326.889 53.6136 328.81 53.2909 330.539 52.6267L329.822 50.7596ZM343.873 52H342.873V53H343.873V52ZM343.873 22.5455V21.5455H342.873V22.5455H343.873ZM348.245 22.5455H349.245V21.5455H348.245V22.5455ZM348.245 26.9943H347.245V27.9943H348.245V26.9943ZM348.551 26.9943V27.9943H349.249L349.49 27.34L348.551 26.9943ZM351.466 23.4467L350.924 22.6065L350.924 22.6065L351.466 23.4467ZM358.6 22.1619H359.6V21.2569L358.699 21.1669L358.6 22.1619ZM358.6 26.7642L358.357 27.7343L359.6 28.045V26.7642H358.6ZM357.545 26.5916L357.381 27.578L357.394 27.5802L357.407 27.582L357.545 26.5916ZM352.003 27.3587L352.471 28.2427L352.474 28.2407L352.003 27.3587ZM349.357 29.8132L348.508 29.2851L348.506 29.2879L349.357 29.8132ZM348.398 52V53H349.398V52H348.398ZM344.873 52V22.5455H342.873V52H344.873ZM343.873 23.5455H348.245V21.5455H343.873V23.5455ZM347.245 22.5455V26.9943H349.245V22.5455H347.245ZM348.245 27.9943H348.551V25.9943H348.245V27.9943ZM349.49 27.34C349.946 26.1022 350.769 25.0867 352.009 24.2869L350.924 22.6065C349.351 23.6221 348.231 24.9717 347.613 26.6486L349.49 27.34ZM352.009 24.2869C353.244 23.4893 354.639 23.0852 356.222 23.0852V21.0852C354.276 21.0852 352.501 21.5888 350.924 22.6065L352.009 24.2869ZM356.222 23.0852C356.543 23.0852 356.949 23.0914 357.443 23.1041L357.494 21.1047C356.991 21.0918 356.566 21.0852 356.222 21.0852V23.0852ZM357.443 23.1041C357.935 23.1167 358.282 23.1352 358.5 23.157L358.699 21.1669C358.406 21.1375 357.999 21.1177 357.494 21.1047L357.443 23.1041ZM357.6 22.1619V26.7642H359.6V22.1619H357.6ZM358.842 25.7941C358.627 25.7402 358.218 25.6758 357.683 25.6012L357.407 27.582C357.972 27.6608 358.266 27.7115 358.357 27.7343L358.842 25.7941ZM357.709 25.6052C357.113 25.5058 356.489 25.4574 355.838 25.4574V27.4574C356.39 27.4574 356.903 27.4985 357.381 27.578L357.709 25.6052ZM355.838 25.4574C354.263 25.4574 352.819 25.7892 351.532 26.4766L352.474 28.2407C353.437 27.7264 354.55 27.4574 355.838 27.4574V25.4574ZM351.536 26.4746C350.27 27.1438 349.255 28.0835 348.508 29.2851L350.206 30.3413C350.763 29.4464 351.512 28.7497 352.471 28.2427L351.536 26.4746ZM348.506 29.2879C347.76 30.4958 347.398 31.8635 347.398 33.3608H349.398C349.398 32.199 349.675 31.2016 350.208 30.3385L348.506 29.2879ZM347.398 33.3608V52H349.398V33.3608H347.398ZM348.398 51H343.873V53H348.398V51Z" fill="black"/>
</g>
<defs>
<clipPath id="clip0_15_300">
<rect width="360" height="65" fill="white"/>
</clipPath>
</defs>
</svg>
